solid OpenSCAD_Model
  facet normal -1 0 0
    outer loop
      vertex -15 25 0
      vertex -15 12 3.5
      vertex -15 25 11.5
    endloop
  endfacet
  facet normal -1 0 0
    outer loop
      vertex -15 25 0
      vertex -15 -12 3.5
      vertex -15 12 3.5
    endloop
  endfacet
  facet normal -1 0 0
    outer loop
      vertex -15 -25 0
      vertex -15 -12 3.5
      vertex -15 25 0
    endloop
  endfacet
  facet normal -1 0 0
    outer loop
      vertex -15 -25 11.5
      vertex -15 -12 3.5
      vertex -15 -25 0
    endloop
  endfacet
  facet normal -1 0 0
    outer loop
      vertex -15 -12 3.5
      vertex -15 -25 11.5
      vertex -15 -12 11.5
    endloop
  endfacet
  facet normal -1 -0 0
    outer loop
      vertex -15 25 11.5
      vertex -15 12 3.5
      vertex -15 12 11.5
    endloop
  endfacet
  facet normal 0 0 1
    outer loop
      vertex 15 -12 11.5
      vertex 12.5 -17.5 11.5
      vertex 15 -25 11.5
    endloop
  endfacet
  facet normal 0 0 1
    outer loop
      vertex 15 -12 11.5
      vertex 11.7678 -15.7322 11.5
      vertex 12.5 -17.5 11.5
    endloop
  endfacet
  facet normal 0 0 1
    outer loop
      vertex 15 -12 11.5
      vertex 10 -15 11.5
      vertex 11.7678 -15.7322 11.5
    endloop
  endfacet
  facet normal 0 0 1
    outer loop
      vertex -10 -15 11.5
      vertex 10 -15 11.5
      vertex 15 -12 11.5
    endloop
  endfacet
  facet normal 0 0 1
    outer loop
      vertex 8.23223 -15.7322 11.5
      vertex -7.5 -17.5 11.5
      vertex 7.5 -17.5 11.5
    endloop
  endfacet
  facet normal 0 0 1
    outer loop
      vertex 10 -15 11.5
      vertex -8.23223 -15.7322 11.5
      vertex 8.23223 -15.7322 11.5
    endloop
  endfacet
  facet normal 0 0 1
    outer loop
      vertex 8.23223 -15.7322 11.5
      vertex -8.23223 -15.7322 11.5
      vertex -7.5 -17.5 11.5
    endloop
  endfacet
  facet normal 0 0 1
    outer loop
      vertex 10 -15 11.5
      vertex -10 -15 11.5
      vertex -8.23223 -15.7322 11.5
    endloop
  endfacet
  facet normal 0 0 1
    outer loop
      vertex -11.7678 -15.7322 11.5
      vertex -15 -12 11.5
      vertex -12.5 -17.5 11.5
    endloop
  endfacet
  facet normal 0 0 1
    outer loop
      vertex -10 -15 11.5
      vertex -15 -12 11.5
      vertex -11.7678 -15.7322 11.5
    endloop
  endfacet
  facet normal -0 0 1
    outer loop
      vertex -15 -12 11.5
      vertex -10 -15 11.5
      vertex 15 -12 11.5
    endloop
  endfacet
  facet normal -0 0 1
    outer loop
      vertex 11.7678 -19.2678 11.5
      vertex 15 -25 11.5
      vertex 12.5 -17.5 11.5
    endloop
  endfacet
  facet normal -0 0 1
    outer loop
      vertex 10 -20 11.5
      vertex 15 -25 11.5
      vertex 11.7678 -19.2678 11.5
    endloop
  endfacet
  facet normal 0 0 1
    outer loop
      vertex 8.23223 -19.2678 11.5
      vertex 15 -25 11.5
      vertex 10 -20 11.5
    endloop
  endfacet
  facet normal -0 0 1
    outer loop
      vertex -7.5 -17.5 11.5
      vertex 8.23223 -19.2678 11.5
      vertex 7.5 -17.5 11.5
    endloop
  endfacet
  facet normal 0 0 1
    outer loop
      vertex -8.23223 -19.2678 11.5
      vertex 8.23223 -19.2678 11.5
      vertex -7.5 -17.5 11.5
    endloop
  endfacet
  facet normal 0 0 1
    outer loop
      vertex 8.23223 -19.2678 11.5
      vertex -8.23223 -19.2678 11.5
      vertex 15 -25 11.5
    endloop
  endfacet
  facet normal 0 0 1
    outer loop
      vertex -15 -25 11.5
      vertex -8.23223 -19.2678 11.5
      vertex -10 -20 11.5
    endloop
  endfacet
  facet normal 0 0 1
    outer loop
      vertex -15 -25 11.5
      vertex -12.5 -17.5 11.5
      vertex -15 -12 11.5
    endloop
  endfacet
  facet normal 0 0 1
    outer loop
      vertex -8.23223 -19.2678 11.5
      vertex -15 -25 11.5
      vertex 15 -25 11.5
    endloop
  endfacet
  facet normal 0 0 1
    outer loop
      vertex -11.7678 -19.2678 11.5
      vertex -15 -25 11.5
      vertex -10 -20 11.5
    endloop
  endfacet
  facet normal 0 0 1
    outer loop
      vertex -12.5 -17.5 11.5
      vertex -15 -25 11.5
      vertex -11.7678 -19.2678 11.5
    endloop
  endfacet
  facet normal 0 0 1
    outer loop
      vertex 15 25 11.5
      vertex 12.5 17.5 11.5
      vertex 15 12 11.5
    endloop
  endfacet
  facet normal 0 0 1
    outer loop
      vertex 15 25 11.5
      vertex 11.7678 19.2678 11.5
      vertex 12.5 17.5 11.5
    endloop
  endfacet
  facet normal 0 0 1
    outer loop
      vertex 15 25 11.5
      vertex 10 20 11.5
      vertex 11.7678 19.2678 11.5
    endloop
  endfacet
  facet normal 0 0 1
    outer loop
      vertex 15 25 11.5
      vertex 8.23223 19.2678 11.5
      vertex 10 20 11.5
    endloop
  endfacet
  facet normal 0 0 1
    outer loop
      vertex 8.23223 19.2678 11.5
      vertex -7.5 17.5 11.5
      vertex 7.5 17.5 11.5
    endloop
  endfacet
  facet normal 0 0 1
    outer loop
      vertex -8.23223 19.2678 11.5
      vertex 8.23223 19.2678 11.5
      vertex 15 25 11.5
    endloop
  endfacet
  facet normal 0 0 1
    outer loop
      vertex 8.23223 19.2678 11.5
      vertex -8.23223 19.2678 11.5
      vertex -7.5 17.5 11.5
    endloop
  endfacet
  facet normal -0 0 1
    outer loop
      vertex -15 25 11.5
      vertex -8.23223 19.2678 11.5
      vertex 15 25 11.5
    endloop
  endfacet
  facet normal 0 0 1
    outer loop
      vertex -11.7678 19.2678 11.5
      vertex -15 25 11.5
      vertex -12.5 17.5 11.5
    endloop
  endfacet
  facet normal 0 0 1
    outer loop
      vertex -10 20 11.5
      vertex -15 25 11.5
      vertex -11.7678 19.2678 11.5
    endloop
  endfacet
  facet normal 0 0 1
    outer loop
      vertex -8.23223 19.2678 11.5
      vertex -15 25 11.5
      vertex -10 20 11.5
    endloop
  endfacet
  facet normal -0 0 1
    outer loop
      vertex 11.7678 15.7322 11.5
      vertex 15 12 11.5
      vertex 12.5 17.5 11.5
    endloop
  endfacet
  facet normal -0 0 1
    outer loop
      vertex 10 15 11.5
      vertex 15 12 11.5
      vertex 11.7678 15.7322 11.5
    endloop
  endfacet
  facet normal -0 0 1
    outer loop
      vertex -8.23223 15.7322 11.5
      vertex 10 15 11.5
      vertex 8.23223 15.7322 11.5
    endloop
  endfacet
  facet normal -0 0 1
    outer loop
      vertex -7.5 17.5 11.5
      vertex 8.23223 15.7322 11.5
      vertex 7.5 17.5 11.5
    endloop
  endfacet
  facet normal 0 0 1
    outer loop
      vertex -8.23223 15.7322 11.5
      vertex 8.23223 15.7322 11.5
      vertex -7.5 17.5 11.5
    endloop
  endfacet
  facet normal 0 0 1
    outer loop
      vertex -10 15 11.5
      vertex 10 15 11.5
      vertex -8.23223 15.7322 11.5
    endloop
  endfacet
  facet normal 0 0 1
    outer loop
      vertex 10 15 11.5
      vertex -10 15 11.5
      vertex 15 12 11.5
    endloop
  endfacet
  facet normal 0 0 1
    outer loop
      vertex -10 15 11.5
      vertex -15 12 11.5
      vertex 15 12 11.5
    endloop
  endfacet
  facet normal 0 0 1
    outer loop
      vertex -11.7678 15.7322 11.5
      vertex -15 12 11.5
      vertex -10 15 11.5
    endloop
  endfacet
  facet normal 0 0 1
    outer loop
      vertex -12.5 17.5 11.5
      vertex -15 12 11.5
      vertex -11.7678 15.7322 11.5
    endloop
  endfacet
  facet normal 0 0 1
    outer loop
      vertex -15 12 11.5
      vertex -12.5 17.5 11.5
      vertex -15 25 11.5
    endloop
  endfacet
  facet normal 1 0 0
    outer loop
      vertex 15 -12 11.5
      vertex 15 -25 11.5
      vertex 15 -12 3.5
    endloop
  endfacet
  facet normal 1 0 0
    outer loop
      vertex 15 12 3.5
      vertex 15 25 11.5
      vertex 15 12 11.5
    endloop
  endfacet
  facet normal 1 0 0
    outer loop
      vertex 15 25 11.5
      vertex 15 12 3.5
      vertex 15 25 0
    endloop
  endfacet
  facet normal 1 -0 0
    outer loop
      vertex 15 -12 3.5
      vertex 15 25 0
      vertex 15 12 3.5
    endloop
  endfacet
  facet normal 1 0 0
    outer loop
      vertex 15 -12 3.5
      vertex 15 -25 0
      vertex 15 25 0
    endloop
  endfacet
  facet normal 1 0 0
    outer loop
      vertex 15 -25 0
      vertex 15 -12 3.5
      vertex 15 -25 11.5
    endloop
  endfacet
  facet normal 0 1 -0
    outer loop
      vertex 15 25 0
      vertex -15 25 11.5
      vertex 15 25 11.5
    endloop
  endfacet
  facet normal 0 1 0
    outer loop
      vertex -15 25 11.5
      vertex 15 25 0
      vertex -15 25 0
    endloop
  endfacet
  facet normal 0 0 -1
    outer loop
      vertex -8.23223 15.7322 0
      vertex 8.23223 15.7322 0
      vertex -8.23223 -15.7322 0
    endloop
  endfacet
  facet normal 0 0 -1
    outer loop
      vertex 8.23223 15.7322 0
      vertex -8.23223 15.7322 0
      vertex -7.5 17.5 0
    endloop
  endfacet
  facet normal 0 0 -1
    outer loop
      vertex -10 -15 0
      vertex -8.23223 15.7322 0
      vertex -8.23223 -15.7322 0
    endloop
  endfacet
  facet normal 0 0 -1
    outer loop
      vertex -10 -15 0
      vertex -10 15 0
      vertex -8.23223 15.7322 0
    endloop
  endfacet
  facet normal 0 0 -1
    outer loop
      vertex -11.7678 -15.7322 0
      vertex -10 15 0
      vertex -10 -15 0
    endloop
  endfacet
  facet normal 0 0 -1
    outer loop
      vertex -11.7678 -15.7322 0
      vertex -11.7678 15.7322 0
      vertex -10 15 0
    endloop
  endfacet
  facet normal 0 0 -1
    outer loop
      vertex -12.5 -17.5 0
      vertex -11.7678 15.7322 0
      vertex -11.7678 -15.7322 0
    endloop
  endfacet
  facet normal -0 0 -1
    outer loop
      vertex -11.7678 15.7322 0
      vertex -12.5 -17.5 0
      vertex -12.5 17.5 0
    endloop
  endfacet
  facet normal 0 0 -1
    outer loop
      vertex 11.7678 -15.7322 0
      vertex 12.5 17.5 0
      vertex 12.5 -17.5 0
    endloop
  endfacet
  facet normal 0 0 -1
    outer loop
      vertex 11.7678 -15.7322 0
      vertex 11.7678 15.7322 0
      vertex 12.5 17.5 0
    endloop
  endfacet
  facet normal 0 0 -1
    outer loop
      vertex 10 -15 0
      vertex 11.7678 15.7322 0
      vertex 11.7678 -15.7322 0
    endloop
  endfacet
  facet normal 0 0 -1
    outer loop
      vertex 10 -15 0
      vertex 10 15 0
      vertex 11.7678 15.7322 0
    endloop
  endfacet
  facet normal 0 0 -1
    outer loop
      vertex 8.23223 -15.7322 0
      vertex 10 15 0
      vertex 10 -15 0
    endloop
  endfacet
  facet normal 0 0 -1
    outer loop
      vertex 8.23223 -15.7322 0
      vertex 8.23223 15.7322 0
      vertex 10 15 0
    endloop
  endfacet
  facet normal 0 0 -1
    outer loop
      vertex -7.5 -17.5 0
      vertex 8.23223 -15.7322 0
      vertex 7.5 -17.5 0
    endloop
  endfacet
  facet normal 0 0 -1
    outer loop
      vertex -8.23223 -15.7322 0
      vertex 8.23223 -15.7322 0
      vertex -7.5 -17.5 0
    endloop
  endfacet
  facet normal 0 0 -1
    outer loop
      vertex 15 -25 0
      vertex 12.5 -17.5 0
      vertex 15 25 0
    endloop
  endfacet
  facet normal 0 0 -1
    outer loop
      vertex 15 -25 0
      vertex 11.7678 -19.2678 0
      vertex 12.5 -17.5 0
    endloop
  endfacet
  facet normal 0 0 -1
    outer loop
      vertex 15 -25 0
      vertex 10 -20 0
      vertex 11.7678 -19.2678 0
    endloop
  endfacet
  facet normal 0 0 -1
    outer loop
      vertex 15 -25 0
      vertex 8.23223 -19.2678 0
      vertex 10 -20 0
    endloop
  endfacet
  facet normal 0 0 -1
    outer loop
      vertex 8.23223 -15.7322 0
      vertex -8.23223 -15.7322 0
      vertex 8.23223 15.7322 0
    endloop
  endfacet
  facet normal 0 0 -1
    outer loop
      vertex 8.23223 -19.2678 0
      vertex -7.5 -17.5 0
      vertex 7.5 -17.5 0
    endloop
  endfacet
  facet normal 0 0 -1
    outer loop
      vertex -8.23223 -19.2678 0
      vertex 8.23223 -19.2678 0
      vertex 15 -25 0
    endloop
  endfacet
  facet normal 0 0 -1
    outer loop
      vertex 8.23223 -19.2678 0
      vertex -8.23223 -19.2678 0
      vertex -7.5 -17.5 0
    endloop
  endfacet
  facet normal 0 0 -1
    outer loop
      vertex -15 -25 0
      vertex -8.23223 -19.2678 0
      vertex 15 -25 0
    endloop
  endfacet
  facet normal -0 0 -1
    outer loop
      vertex -12.5 -17.5 0
      vertex -15 -25 0
      vertex -12.5 17.5 0
    endloop
  endfacet
  facet normal -0 0 -1
    outer loop
      vertex -11.7678 -19.2678 0
      vertex -15 -25 0
      vertex -12.5 -17.5 0
    endloop
  endfacet
  facet normal -0 0 -1
    outer loop
      vertex -10 -20 0
      vertex -15 -25 0
      vertex -11.7678 -19.2678 0
    endloop
  endfacet
  facet normal 0 0 -1
    outer loop
      vertex -8.23223 -19.2678 0
      vertex -15 -25 0
      vertex -10 -20 0
    endloop
  endfacet
  facet normal 0 0 -1
    outer loop
      vertex 12.5 17.5 0
      vertex 15 25 0
      vertex 12.5 -17.5 0
    endloop
  endfacet
  facet normal 0 0 -1
    outer loop
      vertex 11.7678 19.2678 0
      vertex 15 25 0
      vertex 12.5 17.5 0
    endloop
  endfacet
  facet normal 0 0 -1
    outer loop
      vertex 10 20 0
      vertex 15 25 0
      vertex 11.7678 19.2678 0
    endloop
  endfacet
  facet normal 0 0 -1
    outer loop
      vertex 8.23223 19.2678 0
      vertex 15 25 0
      vertex 10 20 0
    endloop
  endfacet
  facet normal 0 0 -1
    outer loop
      vertex 8.23223 15.7322 0
      vertex -7.5 17.5 0
      vertex 7.5 17.5 0
    endloop
  endfacet
  facet normal 0 0 -1
    outer loop
      vertex 7.5 17.5 0
      vertex -7.5 17.5 0
      vertex 8.23223 19.2678 0
    endloop
  endfacet
  facet normal 0 0 -1
    outer loop
      vertex -8.23223 19.2678 0
      vertex 8.23223 19.2678 0
      vertex -7.5 17.5 0
    endloop
  endfacet
  facet normal 0 0 -1
    outer loop
      vertex 8.23223 19.2678 0
      vertex -8.23223 19.2678 0
      vertex 15 25 0
    endloop
  endfacet
  facet normal 0 0 -1
    outer loop
      vertex -15 25 0
      vertex -8.23223 19.2678 0
      vertex -10 20 0
    endloop
  endfacet
  facet normal 0 0 -1
    outer loop
      vertex -8.23223 19.2678 0
      vertex -15 25 0
      vertex 15 25 0
    endloop
  endfacet
  facet normal 0 0 -1
    outer loop
      vertex -11.7678 19.2678 0
      vertex -15 25 0
      vertex -10 20 0
    endloop
  endfacet
  facet normal 0 0 -1
    outer loop
      vertex -12.5 17.5 0
      vertex -15 25 0
      vertex -11.7678 19.2678 0
    endloop
  endfacet
  facet normal 0 0 -1
    outer loop
      vertex -15 25 0
      vertex -12.5 17.5 0
      vertex -15 -25 0
    endloop
  endfacet
  facet normal 0 -1 0
    outer loop
      vertex -15 -25 0
      vertex 15 -25 11.5
      vertex -15 -25 11.5
    endloop
  endfacet
  facet normal 0 -1 -0
    outer loop
      vertex 15 -25 11.5
      vertex -15 -25 0
      vertex 15 -25 0
    endloop
  endfacet
  facet normal 0 -1 0
    outer loop
      vertex -15 12 3.5
      vertex 15 12 11.5
      vertex -15 12 11.5
    endloop
  endfacet
  facet normal 0 -1 -0
    outer loop
      vertex 15 12 11.5
      vertex -15 12 3.5
      vertex 15 12 3.5
    endloop
  endfacet
  facet normal -0 0 1
    outer loop
      vertex -9 3.4 3.5
      vertex 9 -3.4 3.5
      vertex 9 3.4 3.5
    endloop
  endfacet
  facet normal 0 0 1
    outer loop
      vertex 9 -3.4 3.5
      vertex -9 3.4 3.5
      vertex -9 -3.4 3.5
    endloop
  endfacet
  facet normal 0 0 1
    outer loop
      vertex 9 3.4 3.5
      vertex 15 12 3.5
      vertex 9 6.4 3.5
    endloop
  endfacet
  facet normal 0 0 1
    outer loop
      vertex 15 12 3.5
      vertex -9 6.4 3.5
      vertex 9 6.4 3.5
    endloop
  endfacet
  facet normal 0 0 1
    outer loop
      vertex -15 12 3.5
      vertex -9 3.4 3.5
      vertex -9 6.4 3.5
    endloop
  endfacet
  facet normal 0 0 1
    outer loop
      vertex -9 3.4 3.5
      vertex -15 12 3.5
      vertex -9 -3.4 3.5
    endloop
  endfacet
  facet normal 0 0 1
    outer loop
      vertex -15 -12 3.5
      vertex -9 -3.4 3.5
      vertex -15 12 3.5
    endloop
  endfacet
  facet normal -0 0 1
    outer loop
      vertex -15 12 3.5
      vertex -9 6.4 3.5
      vertex 15 12 3.5
    endloop
  endfacet
  facet normal 0 0 1
    outer loop
      vertex 15 12 3.5
      vertex 9 3.4 3.5
      vertex 15 -12 3.5
    endloop
  endfacet
  facet normal -0 0 1
    outer loop
      vertex 9 -3.4 3.5
      vertex 15 -12 3.5
      vertex 9 3.4 3.5
    endloop
  endfacet
  facet normal -0 0 1
    outer loop
      vertex 9 -6.4 3.5
      vertex 15 -12 3.5
      vertex 9 -3.4 3.5
    endloop
  endfacet
  facet normal -0 0 1
    outer loop
      vertex -9 -6.4 3.5
      vertex 15 -12 3.5
      vertex 9 -6.4 3.5
    endloop
  endfacet
  facet normal 0 0 1
    outer loop
      vertex -9 -6.4 3.5
      vertex -15 -12 3.5
      vertex 15 -12 3.5
    endloop
  endfacet
  facet normal 0 0 1
    outer loop
      vertex -9 -3.4 3.5
      vertex -15 -12 3.5
      vertex -9 -6.4 3.5
    endloop
  endfacet
  facet normal 0 1 -0
    outer loop
      vertex 15 -12 3.5
      vertex -15 -12 11.5
      vertex 15 -12 11.5
    endloop
  endfacet
  facet normal 0 1 0
    outer loop
      vertex -15 -12 11.5
      vertex 15 -12 3.5
      vertex -15 -12 3.5
    endloop
  endfacet
  facet normal -0.92388 -0.382683 0
    outer loop
      vertex 12.5 17.5 0
      vertex 11.7678 19.2678 11.5
      vertex 11.7678 19.2678 0
    endloop
  endfacet
  facet normal -0.92388 -0.382683 0
    outer loop
      vertex 11.7678 19.2678 11.5
      vertex 12.5 17.5 0
      vertex 12.5 17.5 11.5
    endloop
  endfacet
  facet normal 0.382683 -0.92388 0
    outer loop
      vertex 8.23223 19.2678 0
      vertex 10 20 11.5
      vertex 8.23223 19.2678 11.5
    endloop
  endfacet
  facet normal 0.382683 -0.92388 0
    outer loop
      vertex 10 20 11.5
      vertex 8.23223 19.2678 0
      vertex 10 20 0
    endloop
  endfacet
  facet normal -0.382683 -0.92388 0
    outer loop
      vertex 10 20 0
      vertex 11.7678 19.2678 11.5
      vertex 10 20 11.5
    endloop
  endfacet
  facet normal -0.382683 -0.92388 -0
    outer loop
      vertex 11.7678 19.2678 11.5
      vertex 10 20 0
      vertex 11.7678 19.2678 0
    endloop
  endfacet
  facet normal 0.92388 -0.382683 0
    outer loop
      vertex 7.5 17.5 11.5
      vertex 8.23223 19.2678 0
      vertex 8.23223 19.2678 11.5
    endloop
  endfacet
  facet normal 0.92388 -0.382683 0
    outer loop
      vertex 8.23223 19.2678 0
      vertex 7.5 17.5 11.5
      vertex 7.5 17.5 0
    endloop
  endfacet
  facet normal -0.92388 0.382683 0
    outer loop
      vertex 11.7678 15.7322 0
      vertex 12.5 17.5 11.5
      vertex 12.5 17.5 0
    endloop
  endfacet
  facet normal -0.92388 0.382683 0
    outer loop
      vertex 12.5 17.5 11.5
      vertex 11.7678 15.7322 0
      vertex 11.7678 15.7322 11.5
    endloop
  endfacet
  facet normal 0.382683 0.92388 -0
    outer loop
      vertex 10 15 0
      vertex 8.23223 15.7322 11.5
      vertex 10 15 11.5
    endloop
  endfacet
  facet normal 0.382683 0.92388 0
    outer loop
      vertex 8.23223 15.7322 11.5
      vertex 10 15 0
      vertex 8.23223 15.7322 0
    endloop
  endfacet
  facet normal 0.92388 0.382683 0
    outer loop
      vertex 8.23223 15.7322 11.5
      vertex 7.5 17.5 0
      vertex 7.5 17.5 11.5
    endloop
  endfacet
  facet normal 0.92388 0.382683 0
    outer loop
      vertex 7.5 17.5 0
      vertex 8.23223 15.7322 11.5
      vertex 8.23223 15.7322 0
    endloop
  endfacet
  facet normal -0.382683 0.92388 0
    outer loop
      vertex 11.7678 15.7322 0
      vertex 10 15 11.5
      vertex 11.7678 15.7322 11.5
    endloop
  endfacet
  facet normal -0.382683 0.92388 0
    outer loop
      vertex 10 15 11.5
      vertex 11.7678 15.7322 0
      vertex 10 15 0
    endloop
  endfacet
  facet normal -0.92388 -0.382683 0
    outer loop
      vertex -7.5 17.5 0
      vertex -8.23223 19.2678 11.5
      vertex -8.23223 19.2678 0
    endloop
  endfacet
  facet normal -0.92388 -0.382683 0
    outer loop
      vertex -8.23223 19.2678 11.5
      vertex -7.5 17.5 0
      vertex -7.5 17.5 11.5
    endloop
  endfacet
  facet normal 0.92388 -0.382683 0
    outer loop
      vertex -12.5 17.5 11.5
      vertex -11.7678 19.2678 0
      vertex -11.7678 19.2678 11.5
    endloop
  endfacet
  facet normal 0.92388 -0.382683 0
    outer loop
      vertex -11.7678 19.2678 0
      vertex -12.5 17.5 11.5
      vertex -12.5 17.5 0
    endloop
  endfacet
  facet normal -0.382683 -0.92388 0
    outer loop
      vertex -10 20 0
      vertex -8.23223 19.2678 11.5
      vertex -10 20 11.5
    endloop
  endfacet
  facet normal -0.382683 -0.92388 -0
    outer loop
      vertex -8.23223 19.2678 11.5
      vertex -10 20 0
      vertex -8.23223 19.2678 0
    endloop
  endfacet
  facet normal 0.382683 -0.92388 0
    outer loop
      vertex -11.7678 19.2678 0
      vertex -10 20 11.5
      vertex -11.7678 19.2678 11.5
    endloop
  endfacet
  facet normal 0.382683 -0.92388 0
    outer loop
      vertex -10 20 11.5
      vertex -11.7678 19.2678 0
      vertex -10 20 0
    endloop
  endfacet
  facet normal -0.92388 0.382683 0
    outer loop
      vertex -8.23223 15.7322 0
      vertex -7.5 17.5 11.5
      vertex -7.5 17.5 0
    endloop
  endfacet
  facet normal -0.92388 0.382683 0
    outer loop
      vertex -7.5 17.5 11.5
      vertex -8.23223 15.7322 0
      vertex -8.23223 15.7322 11.5
    endloop
  endfacet
  facet normal 0.92388 0.382683 0
    outer loop
      vertex -11.7678 15.7322 11.5
      vertex -12.5 17.5 0
      vertex -12.5 17.5 11.5
    endloop
  endfacet
  facet normal 0.92388 0.382683 0
    outer loop
      vertex -12.5 17.5 0
      vertex -11.7678 15.7322 11.5
      vertex -11.7678 15.7322 0
    endloop
  endfacet
  facet normal 0.382683 0.92388 -0
    outer loop
      vertex -10 15 0
      vertex -11.7678 15.7322 11.5
      vertex -10 15 11.5
    endloop
  endfacet
  facet normal 0.382683 0.92388 0
    outer loop
      vertex -11.7678 15.7322 11.5
      vertex -10 15 0
      vertex -11.7678 15.7322 0
    endloop
  endfacet
  facet normal -0.382683 0.92388 0
    outer loop
      vertex -8.23223 15.7322 0
      vertex -10 15 11.5
      vertex -8.23223 15.7322 11.5
    endloop
  endfacet
  facet normal -0.382683 0.92388 0
    outer loop
      vertex -10 15 11.5
      vertex -8.23223 15.7322 0
      vertex -10 15 0
    endloop
  endfacet
  facet normal -0.92388 -0.382683 0
    outer loop
      vertex 12.5 -17.5 0
      vertex 11.7678 -15.7322 11.5
      vertex 11.7678 -15.7322 0
    endloop
  endfacet
  facet normal -0.92388 -0.382683 0
    outer loop
      vertex 11.7678 -15.7322 11.5
      vertex 12.5 -17.5 0
      vertex 12.5 -17.5 11.5
    endloop
  endfacet
  facet normal 0.92388 0.382683 0
    outer loop
      vertex 8.23223 -19.2678 11.5
      vertex 7.5 -17.5 0
      vertex 7.5 -17.5 11.5
    endloop
  endfacet
  facet normal 0.92388 0.382683 0
    outer loop
      vertex 7.5 -17.5 0
      vertex 8.23223 -19.2678 11.5
      vertex 8.23223 -19.2678 0
    endloop
  endfacet
  facet normal 0.382683 -0.92388 0
    outer loop
      vertex 8.23223 -15.7322 0
      vertex 10 -15 11.5
      vertex 8.23223 -15.7322 11.5
    endloop
  endfacet
  facet normal 0.382683 -0.92388 0
    outer loop
      vertex 10 -15 11.5
      vertex 8.23223 -15.7322 0
      vertex 10 -15 0
    endloop
  endfacet
  facet normal -0.382683 -0.92388 0
    outer loop
      vertex 10 -15 0
      vertex 11.7678 -15.7322 11.5
      vertex 10 -15 11.5
    endloop
  endfacet
  facet normal -0.382683 -0.92388 -0
    outer loop
      vertex 11.7678 -15.7322 11.5
      vertex 10 -15 0
      vertex 11.7678 -15.7322 0
    endloop
  endfacet
  facet normal 0.92388 -0.382683 0
    outer loop
      vertex 7.5 -17.5 11.5
      vertex 8.23223 -15.7322 0
      vertex 8.23223 -15.7322 11.5
    endloop
  endfacet
  facet normal 0.92388 -0.382683 0
    outer loop
      vertex 8.23223 -15.7322 0
      vertex 7.5 -17.5 11.5
      vertex 7.5 -17.5 0
    endloop
  endfacet
  facet normal -0.92388 0.382683 0
    outer loop
      vertex 11.7678 -19.2678 0
      vertex 12.5 -17.5 11.5
      vertex 12.5 -17.5 0
    endloop
  endfacet
  facet normal -0.92388 0.382683 0
    outer loop
      vertex 12.5 -17.5 11.5
      vertex 11.7678 -19.2678 0
      vertex 11.7678 -19.2678 11.5
    endloop
  endfacet
  facet normal -0.382683 0.92388 0
    outer loop
      vertex 11.7678 -19.2678 0
      vertex 10 -20 11.5
      vertex 11.7678 -19.2678 11.5
    endloop
  endfacet
  facet normal -0.382683 0.92388 0
    outer loop
      vertex 10 -20 11.5
      vertex 11.7678 -19.2678 0
      vertex 10 -20 0
    endloop
  endfacet
  facet normal 0.382683 0.92388 -0
    outer loop
      vertex 10 -20 0
      vertex 8.23223 -19.2678 11.5
      vertex 10 -20 11.5
    endloop
  endfacet
  facet normal 0.382683 0.92388 0
    outer loop
      vertex 8.23223 -19.2678 11.5
      vertex 10 -20 0
      vertex 8.23223 -19.2678 0
    endloop
  endfacet
  facet normal -0.92388 -0.382683 0
    outer loop
      vertex -7.5 -17.5 0
      vertex -8.23223 -15.7322 11.5
      vertex -8.23223 -15.7322 0
    endloop
  endfacet
  facet normal -0.92388 -0.382683 0
    outer loop
      vertex -8.23223 -15.7322 11.5
      vertex -7.5 -17.5 0
      vertex -7.5 -17.5 11.5
    endloop
  endfacet
  facet normal 0.92388 -0.382683 0
    outer loop
      vertex -12.5 -17.5 11.5
      vertex -11.7678 -15.7322 0
      vertex -11.7678 -15.7322 11.5
    endloop
  endfacet
  facet normal 0.92388 -0.382683 0
    outer loop
      vertex -11.7678 -15.7322 0
      vertex -12.5 -17.5 11.5
      vertex -12.5 -17.5 0
    endloop
  endfacet
  facet normal -0.382683 0.92388 0
    outer loop
      vertex -8.23223 -19.2678 0
      vertex -10 -20 11.5
      vertex -8.23223 -19.2678 11.5
    endloop
  endfacet
  facet normal -0.382683 0.92388 0
    outer loop
      vertex -10 -20 11.5
      vertex -8.23223 -19.2678 0
      vertex -10 -20 0
    endloop
  endfacet
  facet normal 0.382683 -0.92388 0
    outer loop
      vertex -11.7678 -15.7322 0
      vertex -10 -15 11.5
      vertex -11.7678 -15.7322 11.5
    endloop
  endfacet
  facet normal 0.382683 -0.92388 0
    outer loop
      vertex -10 -15 11.5
      vertex -11.7678 -15.7322 0
      vertex -10 -15 0
    endloop
  endfacet
  facet normal -0.382683 -0.92388 0
    outer loop
      vertex -10 -15 0
      vertex -8.23223 -15.7322 11.5
      vertex -10 -15 11.5
    endloop
  endfacet
  facet normal -0.382683 -0.92388 -0
    outer loop
      vertex -8.23223 -15.7322 11.5
      vertex -10 -15 0
      vertex -8.23223 -15.7322 0
    endloop
  endfacet
  facet normal 0.92388 0.382683 0
    outer loop
      vertex -11.7678 -19.2678 11.5
      vertex -12.5 -17.5 0
      vertex -12.5 -17.5 11.5
    endloop
  endfacet
  facet normal 0.92388 0.382683 0
    outer loop
      vertex -12.5 -17.5 0
      vertex -11.7678 -19.2678 11.5
      vertex -11.7678 -19.2678 0
    endloop
  endfacet
  facet normal -0.92388 0.382683 0
    outer loop
      vertex -8.23223 -19.2678 0
      vertex -7.5 -17.5 11.5
      vertex -7.5 -17.5 0
    endloop
  endfacet
  facet normal -0.92388 0.382683 0
    outer loop
      vertex -7.5 -17.5 11.5
      vertex -8.23223 -19.2678 0
      vertex -8.23223 -19.2678 11.5
    endloop
  endfacet
  facet normal 0.382683 0.92388 -0
    outer loop
      vertex -10 -20 0
      vertex -11.7678 -19.2678 11.5
      vertex -10 -20 11.5
    endloop
  endfacet
  facet normal 0.382683 0.92388 0
    outer loop
      vertex -11.7678 -19.2678 11.5
      vertex -10 -20 0
      vertex -11.7678 -19.2678 0
    endloop
  endfacet
  facet normal -1 0 0
    outer loop
      vertex -9 3.4 3.5
      vertex -9 6.4 5
      vertex -9 6.4 3.5
    endloop
  endfacet
  facet normal -1 -0 0
    outer loop
      vertex -9 6.4 5
      vertex -9 3.4 3.5
      vertex -9 3.4 5
    endloop
  endfacet
  facet normal -0 0 1
    outer loop
      vertex -9 6.4 5
      vertex 9 3.4 5
      vertex 9 6.4 5
    endloop
  endfacet
  facet normal 0 0 1
    outer loop
      vertex 9 3.4 5
      vertex -9 6.4 5
      vertex -9 3.4 5
    endloop
  endfacet
  facet normal 1 -0 0
    outer loop
      vertex 9 3.4 5
      vertex 9 6.4 3.5
      vertex 9 6.4 5
    endloop
  endfacet
  facet normal 1 0 0
    outer loop
      vertex 9 6.4 3.5
      vertex 9 3.4 5
      vertex 9 3.4 3.5
    endloop
  endfacet
  facet normal 0 1 -0
    outer loop
      vertex 9 6.4 3.5
      vertex -9 6.4 5
      vertex 9 6.4 5
    endloop
  endfacet
  facet normal 0 1 0
    outer loop
      vertex -9 6.4 5
      vertex 9 6.4 3.5
      vertex -9 6.4 3.5
    endloop
  endfacet
  facet normal 0 -1 0
    outer loop
      vertex -9 3.4 3.5
      vertex 9 3.4 5
      vertex -9 3.4 5
    endloop
  endfacet
  facet normal 0 -1 -0
    outer loop
      vertex 9 3.4 5
      vertex -9 3.4 3.5
      vertex 9 3.4 3.5
    endloop
  endfacet
  facet normal -1 0 0
    outer loop
      vertex -9 -6.4 3.5
      vertex -9 -3.4 5
      vertex -9 -3.4 3.5
    endloop
  endfacet
  facet normal -1 -0 0
    outer loop
      vertex -9 -3.4 5
      vertex -9 -6.4 3.5
      vertex -9 -6.4 5
    endloop
  endfacet
  facet normal -0 0 1
    outer loop
      vertex -9 -3.4 5
      vertex 9 -6.4 5
      vertex 9 -3.4 5
    endloop
  endfacet
  facet normal 0 0 1
    outer loop
      vertex 9 -6.4 5
      vertex -9 -3.4 5
      vertex -9 -6.4 5
    endloop
  endfacet
  facet normal 1 -0 0
    outer loop
      vertex 9 -6.4 5
      vertex 9 -3.4 3.5
      vertex 9 -3.4 5
    endloop
  endfacet
  facet normal 1 0 0
    outer loop
      vertex 9 -3.4 3.5
      vertex 9 -6.4 5
      vertex 9 -6.4 3.5
    endloop
  endfacet
  facet normal 0 -1 0
    outer loop
      vertex -9 -6.4 3.5
      vertex 9 -6.4 5
      vertex -9 -6.4 5
    endloop
  endfacet
  facet normal 0 -1 -0
    outer loop
      vertex 9 -6.4 5
      vertex -9 -6.4 3.5
      vertex 9 -6.4 3.5
    endloop
  endfacet
  facet normal 0 1 -0
    outer loop
      vertex 9 -3.4 3.5
      vertex -9 -3.4 5
      vertex 9 -3.4 5
    endloop
  endfacet
  facet normal 0 1 0
    outer loop
      vertex -9 -3.4 5
      vertex 9 -3.4 3.5
      vertex -9 -3.4 3.5
    endloop
  endfacet
endsolid OpenSCAD_Model
