solid OpenSCAD_Model
  facet normal 0 0 1
    outer loop
      vertex 13 30 30
      vertex 3.75 12.5 30
      vertex 13 12.5 30
    endloop
  endfacet
  facet normal 0 0 1
    outer loop
      vertex 3.75 12.5 30
      vertex -5.31964e-015 30 30
      vertex 3.75 -12.5 30
    endloop
  endfacet
  facet normal -0 0 1
    outer loop
      vertex -5.31964e-015 30 30
      vertex 3.75 12.5 30
      vertex 13 30 30
    endloop
  endfacet
  facet normal -0 0 1
    outer loop
      vertex 3.75 -12.5 30
      vertex 13 -30 30
      vertex 13 -12.5 30
    endloop
  endfacet
  facet normal 0 0 1
    outer loop
      vertex 3.75 -12.5 30
      vertex -5.31964e-015 -30 30
      vertex 13 -30 30
    endloop
  endfacet
  facet normal 0 0 1
    outer loop
      vertex -5.31964e-015 -30 30
      vertex 3.75 -12.5 30
      vertex -5.31964e-015 30 30
    endloop
  endfacet
  facet normal 1 0 0
    outer loop
      vertex 13 -18.2322 -9.26777
      vertex 13 -20.7322 -20.7322
      vertex 13 -20 -22.5
    endloop
  endfacet
  facet normal 1 0 0
    outer loop
      vertex 13 -22.5 -20
      vertex 13 -20 -10
      vertex 13 -21.7678 -9.26777
    endloop
  endfacet
  facet normal 1 0 0
    outer loop
      vertex 13 -24.2678 -20.7322
      vertex 13 -21.7678 -9.26777
      vertex 13 -22.5 -7.5
    endloop
  endfacet
  facet normal 1 0 0
    outer loop
      vertex 13 -20 -10
      vertex 13 -22.5 -20
      vertex 13 -20.7322 -20.7322
    endloop
  endfacet
  facet normal 1 -0 0
    outer loop
      vertex 13 -18.2322 5.73223
      vertex 13 -17.5 -7.5
      vertex 13 -17.5 7.5
    endloop
  endfacet
  facet normal 1 0 0
    outer loop
      vertex 13 -18.2322 5.73223
      vertex 13 -18.2322 -5.73223
      vertex 13 -17.5 -7.5
    endloop
  endfacet
  facet normal 1 -0 0
    outer loop
      vertex 13 -20 5
      vertex 13 -18.2322 -5.73223
      vertex 13 -18.2322 5.73223
    endloop
  endfacet
  facet normal 1 0 0
    outer loop
      vertex 13 -20 5
      vertex 13 -20 -5
      vertex 13 -18.2322 -5.73223
    endloop
  endfacet
  facet normal 1 0 0
    outer loop
      vertex 13 -21.7678 5.73223
      vertex 13 -20 -5
      vertex 13 -20 5
    endloop
  endfacet
  facet normal 1 0 0
    outer loop
      vertex 13 -21.7678 5.73223
      vertex 13 -21.7678 -5.73223
      vertex 13 -20 -5
    endloop
  endfacet
  facet normal 1 0 0
    outer loop
      vertex 13 -22.5 7.5
      vertex 13 -21.7678 -5.73223
      vertex 13 -21.7678 5.73223
    endloop
  endfacet
  facet normal 1 0 0
    outer loop
      vertex 13 -21.7678 -5.73223
      vertex 13 -22.5 7.5
      vertex 13 -22.5 -7.5
    endloop
  endfacet
  facet normal 1 0 0
    outer loop
      vertex 13 -12.5 30
      vertex 13 -17.5 7.5
      vertex 13 -12.5 -30
    endloop
  endfacet
  facet normal 1 0 0
    outer loop
      vertex 13 -12.5 30
      vertex 13 -18.2322 9.26777
      vertex 13 -17.5 7.5
    endloop
  endfacet
  facet normal 1 0 0
    outer loop
      vertex 13 -12.5 30
      vertex 13 -20 22.5
      vertex 13 -18.2322 9.26777
    endloop
  endfacet
  facet normal 1 0 0
    outer loop
      vertex 13 -12.5 30
      vertex 13 -20.7322 24.2678
      vertex 13 -20 22.5
    endloop
  endfacet
  facet normal 1 0 0
    outer loop
      vertex 13 -12.5 30
      vertex 13 -22.5 25
      vertex 13 -20.7322 24.2678
    endloop
  endfacet
  facet normal 1 -0 0
    outer loop
      vertex 13 -30 30
      vertex 13 -22.5 25
      vertex 13 -12.5 30
    endloop
  endfacet
  facet normal 1 0 0
    outer loop
      vertex 13 -30 -30
      vertex 13 -22.5 -7.5
      vertex 13 -30 30
    endloop
  endfacet
  facet normal 1 0 0
    outer loop
      vertex 13 -24.2678 24.2678
      vertex 13 -30 30
      vertex 13 -25 22.5
    endloop
  endfacet
  facet normal 1 0 0
    outer loop
      vertex 13 -22.5 25
      vertex 13 -30 30
      vertex 13 -24.2678 24.2678
    endloop
  endfacet
  facet normal 1 -0 0
    outer loop
      vertex 13 -17.5 -7.5
      vertex 13 -12.5 -30
      vertex 13 -17.5 7.5
    endloop
  endfacet
  facet normal 1 -0 0
    outer loop
      vertex 13 -18.2322 -9.26777
      vertex 13 -12.5 -30
      vertex 13 -17.5 -7.5
    endloop
  endfacet
  facet normal 1 0 0
    outer loop
      vertex 13 -20.7322 -20.7322
      vertex 13 -18.2322 -9.26777
      vertex 13 -20 -10
    endloop
  endfacet
  facet normal 1 0 0
    outer loop
      vertex 13 -18.2322 -9.26777
      vertex 13 -20 -22.5
      vertex 13 -12.5 -30
    endloop
  endfacet
  facet normal 1 -0 0
    outer loop
      vertex 13 -20.7322 -24.2678
      vertex 13 -12.5 -30
      vertex 13 -20 -22.5
    endloop
  endfacet
  facet normal 1 -0 0
    outer loop
      vertex 13 -22.5 -25
      vertex 13 -12.5 -30
      vertex 13 -20.7322 -24.2678
    endloop
  endfacet
  facet normal 1 0 0
    outer loop
      vertex 13 -30 -30
      vertex 13 -22.5 -25
      vertex 13 -24.2678 -24.2678
    endloop
  endfacet
  facet normal 1 0 0
    outer loop
      vertex 13 -22.5 -25
      vertex 13 -30 -30
      vertex 13 -12.5 -30
    endloop
  endfacet
  facet normal 1 0 0
    outer loop
      vertex 13 -25 -22.5
      vertex 13 -30 -30
      vertex 13 -24.2678 -24.2678
    endloop
  endfacet
  facet normal 1 0 0
    outer loop
      vertex 13 -22.5 -7.5
      vertex 13 -30 -30
      vertex 13 -25 -22.5
    endloop
  endfacet
  facet normal 1 -0 0
    outer loop
      vertex 13 -20.7322 20.7322
      vertex 13 -18.2322 9.26777
      vertex 13 -20 22.5
    endloop
  endfacet
  facet normal 1 0 0
    outer loop
      vertex 13 -18.2322 9.26777
      vertex 13 -20.7322 20.7322
      vertex 13 -20 10
    endloop
  endfacet
  facet normal 1 -0 0
    outer loop
      vertex 13 -22.5 20
      vertex 13 -20 10
      vertex 13 -20.7322 20.7322
    endloop
  endfacet
  facet normal 1 0 0
    outer loop
      vertex 13 -20 10
      vertex 13 -22.5 20
      vertex 13 -21.7678 9.26777
    endloop
  endfacet
  facet normal 1 0 0
    outer loop
      vertex 13 -24.2678 20.7322
      vertex 13 -21.7678 9.26777
      vertex 13 -22.5 20
    endloop
  endfacet
  facet normal 1 0 0
    outer loop
      vertex 13 -21.7678 9.26777
      vertex 13 -24.2678 20.7322
      vertex 13 -22.5 7.5
    endloop
  endfacet
  facet normal 1 0 0
    outer loop
      vertex 13 -25 22.5
      vertex 13 -22.5 7.5
      vertex 13 -24.2678 20.7322
    endloop
  endfacet
  facet normal 1 0 0
    outer loop
      vertex 13 -30 30
      vertex 13 -22.5 7.5
      vertex 13 -25 22.5
    endloop
  endfacet
  facet normal 1 0 0
    outer loop
      vertex 13 -21.7678 -9.26777
      vertex 13 -24.2678 -20.7322
      vertex 13 -22.5 -20
    endloop
  endfacet
  facet normal 1 0 0
    outer loop
      vertex 13 -22.5 7.5
      vertex 13 -30 30
      vertex 13 -22.5 -7.5
    endloop
  endfacet
  facet normal 1 0 0
    outer loop
      vertex 13 -22.5 -7.5
      vertex 13 -25 -22.5
      vertex 13 -24.2678 -20.7322
    endloop
  endfacet
  facet normal 1 -0 0
    outer loop
      vertex 13 21.7678 5.73223
      vertex 13 22.5 -7.5
      vertex 13 22.5 7.5
    endloop
  endfacet
  facet normal 1 0 0
    outer loop
      vertex 13 21.7678 5.73223
      vertex 13 21.7678 -5.73223
      vertex 13 22.5 -7.5
    endloop
  endfacet
  facet normal 1 -0 0
    outer loop
      vertex 13 20 5
      vertex 13 21.7678 -5.73223
      vertex 13 21.7678 5.73223
    endloop
  endfacet
  facet normal 1 0 0
    outer loop
      vertex 13 20 5
      vertex 13 20 -5
      vertex 13 21.7678 -5.73223
    endloop
  endfacet
  facet normal 1 0 0
    outer loop
      vertex 13 18.2322 5.73223
      vertex 13 20 -5
      vertex 13 20 5
    endloop
  endfacet
  facet normal 1 0 0
    outer loop
      vertex 13 18.2322 5.73223
      vertex 13 18.2322 -5.73223
      vertex 13 20 -5
    endloop
  endfacet
  facet normal 1 0 0
    outer loop
      vertex 13 17.5 7.5
      vertex 13 18.2322 -5.73223
      vertex 13 18.2322 5.73223
    endloop
  endfacet
  facet normal 1 0 0
    outer loop
      vertex 13 18.2322 -5.73223
      vertex 13 17.5 7.5
      vertex 13 17.5 -7.5
    endloop
  endfacet
  facet normal 1 0 0
    outer loop
      vertex 13 24.2678 20.7322
      vertex 13 21.7678 9.26777
      vertex 13 22.5 7.5
    endloop
  endfacet
  facet normal 1 0 0
    outer loop
      vertex 13 20 10
      vertex 13 22.5 20
      vertex 13 20.7322 20.7322
    endloop
  endfacet
  facet normal 1 0 0
    outer loop
      vertex 13 18.2322 9.26777
      vertex 13 20.7322 20.7322
      vertex 13 20 22.5
    endloop
  endfacet
  facet normal 1 0 0
    outer loop
      vertex 13 22.5 20
      vertex 13 20 10
      vertex 13 21.7678 9.26777
    endloop
  endfacet
  facet normal 1 0 0
    outer loop
      vertex 13 30 30
      vertex 13 22.5 7.5
      vertex 13 30 -30
    endloop
  endfacet
  facet normal 1 -0 0
    outer loop
      vertex 13 22.5 -7.5
      vertex 13 30 -30
      vertex 13 22.5 7.5
    endloop
  endfacet
  facet normal 1 0 0
    outer loop
      vertex 13 21.7678 9.26777
      vertex 13 24.2678 20.7322
      vertex 13 22.5 20
    endloop
  endfacet
  facet normal 1 0 0
    outer loop
      vertex 13 30 -30
      vertex 13 22.5 -7.5
      vertex 13 25 -22.5
    endloop
  endfacet
  facet normal 1 0 0
    outer loop
      vertex 13 25 -22.5
      vertex 13 22.5 -7.5
      vertex 13 24.2678 -20.7322
    endloop
  endfacet
  facet normal 1 -0 0
    outer loop
      vertex 13 21.7678 -9.26777
      vertex 13 24.2678 -20.7322
      vertex 13 22.5 -7.5
    endloop
  endfacet
  facet normal 1 0 0
    outer loop
      vertex 13 24.2678 -20.7322
      vertex 13 21.7678 -9.26777
      vertex 13 22.5 -20
    endloop
  endfacet
  facet normal 1 -0 0
    outer loop
      vertex 13 20 -10
      vertex 13 22.5 -20
      vertex 13 21.7678 -9.26777
    endloop
  endfacet
  facet normal 1 0 0
    outer loop
      vertex 13 22.5 -20
      vertex 13 20 -10
      vertex 13 20.7322 -20.7322
    endloop
  endfacet
  facet normal 1 0 0
    outer loop
      vertex 13 18.2322 -9.26777
      vertex 13 20.7322 -20.7322
      vertex 13 20 -10
    endloop
  endfacet
  facet normal 1 0 0
    outer loop
      vertex 13 20.7322 -20.7322
      vertex 13 18.2322 -9.26777
      vertex 13 20 -22.5
    endloop
  endfacet
  facet normal 1 0 0
    outer loop
      vertex 13 24.2678 20.7322
      vertex 13 30 30
      vertex 13 25 22.5
    endloop
  endfacet
  facet normal 1 0 0
    outer loop
      vertex 13 30 30
      vertex 13 24.2678 24.2678
      vertex 13 25 22.5
    endloop
  endfacet
  facet normal 1 0 0
    outer loop
      vertex 13 30 30
      vertex 13 22.5 25
      vertex 13 24.2678 24.2678
    endloop
  endfacet
  facet normal 1 -0 0
    outer loop
      vertex 13 12.5 30
      vertex 13 22.5 25
      vertex 13 30 30
    endloop
  endfacet
  facet normal 1 0 0
    outer loop
      vertex 13 20.7322 20.7322
      vertex 13 18.2322 9.26777
      vertex 13 20 10
    endloop
  endfacet
  facet normal 1 0 0
    outer loop
      vertex 13 12.5 30
      vertex 13 18.2322 9.26777
      vertex 13 20 22.5
    endloop
  endfacet
  facet normal 1 0 0
    outer loop
      vertex 13 17.5 7.5
      vertex 13 12.5 30
      vertex 13 17.5 -7.5
    endloop
  endfacet
  facet normal 1 0 0
    outer loop
      vertex 13 18.2322 9.26777
      vertex 13 12.5 30
      vertex 13 17.5 7.5
    endloop
  endfacet
  facet normal 1 0 0
    outer loop
      vertex 13 20.7322 24.2678
      vertex 13 12.5 30
      vertex 13 20 22.5
    endloop
  endfacet
  facet normal 1 0 0
    outer loop
      vertex 13 22.5 25
      vertex 13 12.5 30
      vertex 13 20.7322 24.2678
    endloop
  endfacet
  facet normal 1 0 0
    outer loop
      vertex 13 22.5 7.5
      vertex 13 30 30
      vertex 13 24.2678 20.7322
    endloop
  endfacet
  facet normal 1 -0 0
    outer loop
      vertex 13 24.2678 -24.2678
      vertex 13 30 -30
      vertex 13 25 -22.5
    endloop
  endfacet
  facet normal 1 -0 0
    outer loop
      vertex 13 22.5 -25
      vertex 13 30 -30
      vertex 13 24.2678 -24.2678
    endloop
  endfacet
  facet normal 1 0 0
    outer loop
      vertex 13 12.5 -30
      vertex 13 22.5 -25
      vertex 13 20.7322 -24.2678
    endloop
  endfacet
  facet normal 1 0 0
    outer loop
      vertex 13 12.5 -30
      vertex 13 18.2322 -9.26777
      vertex 13 17.5 -7.5
    endloop
  endfacet
  facet normal 1 0 0
    outer loop
      vertex 13 22.5 -25
      vertex 13 12.5 -30
      vertex 13 30 -30
    endloop
  endfacet
  facet normal 1 0 0
    outer loop
      vertex 13 20 -22.5
      vertex 13 12.5 -30
      vertex 13 20.7322 -24.2678
    endloop
  endfacet
  facet normal 1 0 0
    outer loop
      vertex 13 18.2322 -9.26777
      vertex 13 12.5 -30
      vertex 13 20 -22.5
    endloop
  endfacet
  facet normal 1 0 0
    outer loop
      vertex 13 12.5 -30
      vertex 13 17.5 -7.5
      vertex 13 12.5 30
    endloop
  endfacet
  facet normal 0 0 -1
    outer loop
      vertex 13 -30 -30
      vertex 3.75 -12.5 -30
      vertex 13 -12.5 -30
    endloop
  endfacet
  facet normal -0 0 -1
    outer loop
      vertex 3.75 -12.5 -30
      vertex 5.31964e-015 -30 -30
      vertex 3.75 12.5 -30
    endloop
  endfacet
  facet normal 0 0 -1
    outer loop
      vertex 5.31964e-015 -30 -30
      vertex 3.75 -12.5 -30
      vertex 13 -30 -30
    endloop
  endfacet
  facet normal 0 0 -1
    outer loop
      vertex 3.75 12.5 -30
      vertex 13 30 -30
      vertex 13 12.5 -30
    endloop
  endfacet
  facet normal 0 0 -1
    outer loop
      vertex 3.75 12.5 -30
      vertex 5.31964e-015 30 -30
      vertex 13 30 -30
    endloop
  endfacet
  facet normal 0 0 -1
    outer loop
      vertex 5.31964e-015 30 -30
      vertex 3.75 12.5 -30
      vertex 5.31964e-015 -30 -30
    endloop
  endfacet
  facet normal 0 1 -0
    outer loop
      vertex 13 30 -30
      vertex -5.31964e-015 30 30
      vertex 13 30 30
    endloop
  endfacet
  facet normal 0 1 0
    outer loop
      vertex -5.31964e-015 30 30
      vertex 13 30 -30
      vertex 5.31964e-015 30 -30
    endloop
  endfacet
  facet normal -1 2.6957e-022 -1.77321e-016
    outer loop
      vertex -1.64337e-015 -18.2322 9.26777
      vertex -3.67627e-015 -20.7322 20.7322
      vertex -3.98973e-015 -20 22.5
    endloop
  endfacet
  facet normal -1 -1.29855e-023 -1.77321e-016
    outer loop
      vertex -3.54643e-015 -22.5 20
      vertex -1.77321e-015 -20 10
      vertex -1.64337e-015 -21.7678 9.26777
    endloop
  endfacet
  facet normal -1 6.17055e-023 -1.77321e-016
    outer loop
      vertex -3.67627e-015 -24.2678 20.7322
      vertex -1.64337e-015 -21.7678 9.26777
      vertex -1.32991e-015 -22.5 7.5
    endloop
  endfacet
  facet normal -1 -1.32081e-022 -1.77321e-016
    outer loop
      vertex -1.77321e-015 -20 10
      vertex -3.54643e-015 -22.5 20
      vertex -3.67627e-015 -20.7322 20.7322
    endloop
  endfacet
  facet normal -1 2.36525e-023 -1.77321e-016
    outer loop
      vertex 1.01645e-015 -18.2322 -5.73223
      vertex -1.32991e-015 -17.5 7.5
      vertex 1.32991e-015 -17.5 -7.5
    endloop
  endfacet
  facet normal -1 -3.09467e-023 -1.77321e-016
    outer loop
      vertex 1.01645e-015 -18.2322 -5.73223
      vertex -1.01645e-015 -18.2322 5.73223
      vertex -1.32991e-015 -17.5 7.5
    endloop
  endfacet
  facet normal -1 -8.54567e-024 -1.77321e-016
    outer loop
      vertex 8.86606e-016 -20 -5
      vertex -1.01645e-015 -18.2322 5.73223
      vertex 1.01645e-015 -18.2322 -5.73223
    endloop
  endfacet
  facet normal -1 9.79715e-024 -1.77321e-016
    outer loop
      vertex 8.86606e-016 -20 -5
      vertex -8.86606e-016 -20 5
      vertex -1.01645e-015 -18.2322 5.73223
    endloop
  endfacet
  facet normal -1 9.79716e-024 -1.77321e-016
    outer loop
      vertex 1.01645e-015 -21.7678 -5.73223
      vertex -8.86606e-016 -20 5
      vertex 8.86606e-016 -20 -5
    endloop
  endfacet
  facet normal -1 -8.54568e-024 -1.77321e-016
    outer loop
      vertex 1.01645e-015 -21.7678 -5.73223
      vertex -1.01645e-015 -21.7678 5.73223
      vertex -8.86606e-016 -20 5
    endloop
  endfacet
  facet normal -1 2.73019e-023 -1.77321e-016
    outer loop
      vertex 1.32991e-015 -22.5 -7.5
      vertex -1.01645e-015 -21.7678 5.73223
      vertex 1.01645e-015 -21.7678 -5.73223
    endloop
  endfacet
  facet normal -1 3.05171e-023 -1.77321e-016
    outer loop
      vertex -1.01645e-015 -21.7678 5.73223
      vertex 1.32991e-015 -22.5 -7.5
      vertex -1.32991e-015 -22.5 7.5
    endloop
  endfacet
  facet normal -1 -2.6957e-022 -1.77321e-016
    outer loop
      vertex 3.67627e-015 -20.7322 -20.7322
      vertex 1.64337e-015 -18.2322 -9.26777
      vertex 3.98973e-015 -20 -22.5
    endloop
  endfacet
  facet normal -1 -4.51299e-024 -1.77321e-016
    outer loop
      vertex 1.64337e-015 -18.2322 -9.26777
      vertex 3.67627e-015 -20.7322 -20.7322
      vertex 1.77321e-015 -20 -10
    endloop
  endfacet
  facet normal -1 1.32081e-022 -1.77321e-016
    outer loop
      vertex 3.54643e-015 -22.5 -20
      vertex 1.77321e-015 -20 -10
      vertex 3.67627e-015 -20.7322 -20.7322
    endloop
  endfacet
  facet normal -1 1.29855e-023 -1.77321e-016
    outer loop
      vertex 1.77321e-015 -20 -10
      vertex 3.54643e-015 -22.5 -20
      vertex 1.64337e-015 -21.7678 -9.26777
    endloop
  endfacet
  facet normal -1 -1.48991e-022 -1.77321e-016
    outer loop
      vertex 3.67627e-015 -24.2678 -20.7322
      vertex 1.64337e-015 -21.7678 -9.26777
      vertex 3.54643e-015 -22.5 -20
    endloop
  endfacet
  facet normal -1 -2.35462e-023 -1.77321e-016
    outer loop
      vertex 1.64337e-015 -21.7678 -9.26777
      vertex 3.67627e-015 -24.2678 -20.7322
      vertex 1.32991e-015 -22.5 -7.5
    endloop
  endfacet
  facet normal -1 1.04138e-022 -1.77321e-016
    outer loop
      vertex 5.31964e-015 -30 -30
      vertex 1.32991e-015 -22.5 -7.5
      vertex 3.67627e-015 -24.2678 -20.7322
    endloop
  endfacet
  facet normal -1 -1.42172e-023 -1.77321e-016
    outer loop
      vertex 1.32991e-015 -22.5 -7.5
      vertex 5.31964e-015 -30 -30
      vertex -1.32991e-015 -22.5 7.5
    endloop
  endfacet
  facet normal -1 1.48991e-022 -1.77321e-016
    outer loop
      vertex -1.64337e-015 -21.7678 9.26777
      vertex -3.67627e-015 -24.2678 20.7322
      vertex -3.54643e-015 -22.5 20
    endloop
  endfacet
  facet normal -1 -5.77366e-022 -1.77321e-016
    outer loop
      vertex 5.31964e-015 -30 -30
      vertex 3.67627e-015 -24.2678 -20.7322
      vertex 3.98973e-015 -25 -22.5
    endloop
  endfacet
  facet normal -1 0 -1.77321e-016
    outer loop
      vertex -5.31964e-015 -30 30
      vertex -1.32991e-015 -22.5 7.5
      vertex 5.31964e-015 -30 -30
    endloop
  endfacet
  facet normal -1 2.36524e-023 -1.77321e-016
    outer loop
      vertex 1.01645e-015 21.7678 -5.73223
      vertex -1.32991e-015 22.5 7.5
      vertex 1.32991e-015 22.5 -7.5
    endloop
  endfacet
  facet normal -1 -3.09466e-023 -1.77321e-016
    outer loop
      vertex 1.01645e-015 21.7678 -5.73223
      vertex -1.01645e-015 21.7678 5.73223
      vertex -1.32991e-015 22.5 7.5
    endloop
  endfacet
  facet normal -1 -8.54568e-024 -1.77321e-016
    outer loop
      vertex 8.86606e-016 20 -5
      vertex -1.01645e-015 21.7678 5.73223
      vertex 1.01645e-015 21.7678 -5.73223
    endloop
  endfacet
  facet normal -1 9.79716e-024 -1.77321e-016
    outer loop
      vertex 8.86606e-016 20 -5
      vertex -8.86606e-016 20 5
      vertex -1.01645e-015 21.7678 5.73223
    endloop
  endfacet
  facet normal -1 9.79715e-024 -1.77321e-016
    outer loop
      vertex 1.01645e-015 18.2322 -5.73223
      vertex -8.86606e-016 20 5
      vertex 8.86606e-016 20 -5
    endloop
  endfacet
  facet normal -1 -8.54567e-024 -1.77321e-016
    outer loop
      vertex 1.01645e-015 18.2322 -5.73223
      vertex -1.01645e-015 18.2322 5.73223
      vertex -8.86606e-016 20 5
    endloop
  endfacet
  facet normal -1 2.7302e-023 -1.77321e-016
    outer loop
      vertex 1.32991e-015 17.5 -7.5
      vertex -1.01645e-015 18.2322 5.73223
      vertex 1.01645e-015 18.2322 -5.73223
    endloop
  endfacet
  facet normal -1 3.05172e-023 -1.77321e-016
    outer loop
      vertex -1.01645e-015 18.2322 5.73223
      vertex 1.32991e-015 17.5 -7.5
      vertex -1.32991e-015 17.5 7.5
    endloop
  endfacet
  facet normal -1 6.17055e-023 -1.77321e-016
    outer loop
      vertex 3.67627e-015 24.2678 -20.7322
      vertex 1.64337e-015 21.7678 -9.26777
      vertex 1.32991e-015 22.5 -7.5
    endloop
  endfacet
  facet normal -1 -1.32081e-022 -1.77321e-016
    outer loop
      vertex 1.77321e-015 20 -10
      vertex 3.54643e-015 22.5 -20
      vertex 3.67627e-015 20.7322 -20.7322
    endloop
  endfacet
  facet normal -1 2.6957e-022 -1.77321e-016
    outer loop
      vertex 1.64337e-015 18.2322 -9.26777
      vertex 3.67627e-015 20.7322 -20.7322
      vertex 3.98973e-015 20 -22.5
    endloop
  endfacet
  facet normal -1 -1.29855e-023 -1.77321e-016
    outer loop
      vertex 3.54643e-015 22.5 -20
      vertex 1.77321e-015 20 -10
      vertex 1.64337e-015 21.7678 -9.26777
    endloop
  endfacet
  facet normal -1 0 -1.77321e-016
    outer loop
      vertex 5.31964e-015 30 -30
      vertex 1.32991e-015 22.5 -7.5
      vertex -5.31964e-015 30 30
    endloop
  endfacet
  facet normal -1 0 -1.77321e-016
    outer loop
      vertex -1.32991e-015 22.5 7.5
      vertex -5.31964e-015 30 30
      vertex 1.32991e-015 22.5 -7.5
    endloop
  endfacet
  facet normal -1 1.48991e-022 -1.77321e-016
    outer loop
      vertex 1.64337e-015 21.7678 -9.26777
      vertex 3.67627e-015 24.2678 -20.7322
      vertex 3.54643e-015 22.5 -20
    endloop
  endfacet
  facet normal -1 0 -1.77321e-016
    outer loop
      vertex -5.31964e-015 30 30
      vertex -1.32991e-015 22.5 7.5
      vertex -3.98973e-015 25 22.5
    endloop
  endfacet
  facet normal -1 5.88811e-022 -1.77321e-016
    outer loop
      vertex -3.98973e-015 25 22.5
      vertex -1.32991e-015 22.5 7.5
      vertex -3.67627e-015 24.2678 20.7322
    endloop
  endfacet
  facet normal -1 -6.17055e-023 -1.77321e-016
    outer loop
      vertex -1.64337e-015 21.7678 9.26777
      vertex -3.67627e-015 24.2678 20.7322
      vertex -1.32991e-015 22.5 7.5
    endloop
  endfacet
  facet normal -1 -1.48991e-022 -1.77321e-016
    outer loop
      vertex -3.67627e-015 24.2678 20.7322
      vertex -1.64337e-015 21.7678 9.26777
      vertex -3.54643e-015 22.5 20
    endloop
  endfacet
  facet normal -1 1.29855e-023 -1.77321e-016
    outer loop
      vertex -1.77321e-015 20 10
      vertex -3.54643e-015 22.5 20
      vertex -1.64337e-015 21.7678 9.26777
    endloop
  endfacet
  facet normal -1 1.32081e-022 -1.77321e-016
    outer loop
      vertex -3.54643e-015 22.5 20
      vertex -1.77321e-015 20 10
      vertex -3.67627e-015 20.7322 20.7322
    endloop
  endfacet
  facet normal -1 -4.51299e-024 -1.77321e-016
    outer loop
      vertex -1.64337e-015 18.2322 9.26777
      vertex -3.67627e-015 20.7322 20.7322
      vertex -1.77321e-015 20 10
    endloop
  endfacet
  facet normal -1 -2.6957e-022 -1.77321e-016
    outer loop
      vertex -3.67627e-015 20.7322 20.7322
      vertex -1.64337e-015 18.2322 9.26777
      vertex -3.98973e-015 20 22.5
    endloop
  endfacet
  facet normal -1 5.77366e-022 -1.77321e-016
    outer loop
      vertex 3.67627e-015 24.2678 -20.7322
      vertex 5.31964e-015 30 -30
      vertex 3.98973e-015 25 -22.5
    endloop
  endfacet
  facet normal -1 -4.21546e-023 -1.77321e-016
    outer loop
      vertex 5.31964e-015 30 -30
      vertex 4.30319e-015 24.2678 -24.2678
      vertex 3.98973e-015 25 -22.5
    endloop
  endfacet
  facet normal -1 2.81031e-023 -1.77321e-016
    outer loop
      vertex 5.31964e-015 30 -30
      vertex 4.43303e-015 22.5 -25
      vertex 4.30319e-015 24.2678 -24.2678
    endloop
  endfacet
  facet normal -1 -1.20323e-022 -1.77321e-016
    outer loop
      vertex 5.31964e-015 30 -30
      vertex 4.30319e-015 20.7322 -24.2678
      vertex 4.43303e-015 22.5 -25
    endloop
  endfacet
  facet normal -1 4.51299e-024 -1.77321e-016
    outer loop
      vertex 3.67627e-015 20.7322 -20.7322
      vertex 1.64337e-015 18.2322 -9.26777
      vertex 1.77321e-015 20 -10
    endloop
  endfacet
  facet normal -1 0 -1.77321e-016
    outer loop
      vertex 1.64337e-015 -18.2322 -9.26777
      vertex 1.64337e-015 18.2322 -9.26777
      vertex 3.98973e-015 20 -22.5
    endloop
  endfacet
  facet normal -1 -1.21861e-024 -1.77321e-016
    outer loop
      vertex 1.32991e-015 17.5 -7.5
      vertex 1.32991e-015 -17.5 -7.5
      vertex -1.32991e-015 17.5 7.5
    endloop
  endfacet
  facet normal -1 -0 -1.77321e-016
    outer loop
      vertex 1.64337e-015 18.2322 -9.26777
      vertex 1.64337e-015 -18.2322 -9.26777
      vertex 1.32991e-015 17.5 -7.5
    endloop
  endfacet
  facet normal -1 0 -1.77321e-016
    outer loop
      vertex 3.98973e-015 -20 -22.5
      vertex 3.98973e-015 20 -22.5
      vertex 4.30319e-015 20.7322 -24.2678
    endloop
  endfacet
  facet normal -1 0 -1.77321e-016
    outer loop
      vertex 4.30319e-015 -20.7322 -24.2678
      vertex 4.30319e-015 20.7322 -24.2678
      vertex 5.31964e-015 30 -30
    endloop
  endfacet
  facet normal -1 -1.21861e-024 -1.77321e-016
    outer loop
      vertex 1.32991e-015 17.5 -7.5
      vertex 1.64337e-015 -18.2322 -9.26777
      vertex 1.32991e-015 -17.5 -7.5
    endloop
  endfacet
  facet normal -1 -0 -1.77321e-016
    outer loop
      vertex 3.98973e-015 20 -22.5
      vertex 3.98973e-015 -20 -22.5
      vertex 1.64337e-015 -18.2322 -9.26777
    endloop
  endfacet
  facet normal -1 -0 -1.77321e-016
    outer loop
      vertex 4.30319e-015 20.7322 -24.2678
      vertex 4.30319e-015 -20.7322 -24.2678
      vertex 3.98973e-015 -20 -22.5
    endloop
  endfacet
  facet normal -1 0 -1.77321e-016
    outer loop
      vertex 5.31964e-015 -30 -30
      vertex 4.30319e-015 -20.7322 -24.2678
      vertex 5.31964e-015 30 -30
    endloop
  endfacet
  facet normal -1 -9.74911e-023 -1.77321e-016
    outer loop
      vertex -1.32991e-015 -22.5 7.5
      vertex -5.31964e-015 -30 30
      vertex -3.67627e-015 -24.2678 20.7322
    endloop
  endfacet
  facet normal -1 4.21546e-023 -1.77321e-016
    outer loop
      vertex 4.30319e-015 -24.2678 -24.2678
      vertex 5.31964e-015 -30 -30
      vertex 3.98973e-015 -25 -22.5
    endloop
  endfacet
  facet normal -1 -2.81031e-023 -1.77321e-016
    outer loop
      vertex 4.43303e-015 -22.5 -25
      vertex 5.31964e-015 -30 -30
      vertex 4.30319e-015 -24.2678 -24.2678
    endloop
  endfacet
  facet normal -1 1.20323e-022 -1.77321e-016
    outer loop
      vertex 4.30319e-015 -20.7322 -24.2678
      vertex 5.31964e-015 -30 -30
      vertex 4.43303e-015 -22.5 -25
    endloop
  endfacet
  facet normal -1 -9.74911e-023 -1.77321e-016
    outer loop
      vertex 1.32991e-015 22.5 -7.5
      vertex 5.31964e-015 30 -30
      vertex 3.67627e-015 24.2678 -20.7322
    endloop
  endfacet
  facet normal -1 4.21546e-023 -1.77321e-016
    outer loop
      vertex -4.30319e-015 24.2678 24.2678
      vertex -5.31964e-015 30 30
      vertex -3.98973e-015 25 22.5
    endloop
  endfacet
  facet normal -1 -2.81031e-023 -1.77321e-016
    outer loop
      vertex -4.43303e-015 22.5 25
      vertex -5.31964e-015 30 30
      vertex -4.30319e-015 24.2678 24.2678
    endloop
  endfacet
  facet normal -1 1.20323e-022 -1.77321e-016
    outer loop
      vertex -4.30319e-015 20.7322 24.2678
      vertex -5.31964e-015 30 30
      vertex -4.43303e-015 22.5 25
    endloop
  endfacet
  facet normal -1 0 -1.77321e-016
    outer loop
      vertex -1.64337e-015 -18.2322 9.26777
      vertex -1.64337e-015 18.2322 9.26777
      vertex -1.32991e-015 17.5 7.5
    endloop
  endfacet
  facet normal -1 0 -1.77321e-016
    outer loop
      vertex -1.32991e-015 -17.5 7.5
      vertex -1.32991e-015 17.5 7.5
      vertex 1.32991e-015 -17.5 -7.5
    endloop
  endfacet
  facet normal -1 0 -1.77321e-016
    outer loop
      vertex -1.64337e-015 -18.2322 9.26777
      vertex -1.32991e-015 17.5 7.5
      vertex -1.32991e-015 -17.5 7.5
    endloop
  endfacet
  facet normal -1 -0 -1.77321e-016
    outer loop
      vertex -1.64337e-015 18.2322 9.26777
      vertex -1.64337e-015 -18.2322 9.26777
      vertex -3.98973e-015 20 22.5
    endloop
  endfacet
  facet normal -1 0 -1.77321e-016
    outer loop
      vertex -3.98973e-015 -20 22.5
      vertex -3.98973e-015 20 22.5
      vertex -1.64337e-015 -18.2322 9.26777
    endloop
  endfacet
  facet normal -1 -0 -1.77321e-016
    outer loop
      vertex -3.98973e-015 20 22.5
      vertex -3.98973e-015 -20 22.5
      vertex -4.30319e-015 20.7322 24.2678
    endloop
  endfacet
  facet normal -1 4.51299e-024 -1.77321e-016
    outer loop
      vertex -3.67627e-015 -20.7322 20.7322
      vertex -1.64337e-015 -18.2322 9.26777
      vertex -1.77321e-015 -20 10
    endloop
  endfacet
  facet normal -1 0 -1.77321e-016
    outer loop
      vertex -4.30319e-015 -20.7322 24.2678
      vertex -4.30319e-015 20.7322 24.2678
      vertex -3.98973e-015 -20 22.5
    endloop
  endfacet
  facet normal -1 -0 -1.77321e-016
    outer loop
      vertex -4.30319e-015 20.7322 24.2678
      vertex -4.30319e-015 -20.7322 24.2678
      vertex -5.31964e-015 30 30
    endloop
  endfacet
  facet normal -1 -1.20323e-022 -1.77321e-016
    outer loop
      vertex -5.31964e-015 -30 30
      vertex -4.30319e-015 -20.7322 24.2678
      vertex -4.43303e-015 -22.5 25
    endloop
  endfacet
  facet normal -1 0 -1.77321e-016
    outer loop
      vertex -4.30319e-015 -20.7322 24.2678
      vertex -5.31964e-015 -30 30
      vertex -5.31964e-015 30 30
    endloop
  endfacet
  facet normal -1 2.81031e-023 -1.77321e-016
    outer loop
      vertex -4.30319e-015 -24.2678 24.2678
      vertex -5.31964e-015 -30 30
      vertex -4.43303e-015 -22.5 25
    endloop
  endfacet
  facet normal -1 -4.21546e-023 -1.77321e-016
    outer loop
      vertex -3.98973e-015 -25 22.5
      vertex -5.31964e-015 -30 30
      vertex -4.30319e-015 -24.2678 24.2678
    endloop
  endfacet
  facet normal -1 5.77366e-022 -1.77321e-016
    outer loop
      vertex -3.67627e-015 -24.2678 20.7322
      vertex -5.31964e-015 -30 30
      vertex -3.98973e-015 -25 22.5
    endloop
  endfacet
  facet normal 0 -1 0
    outer loop
      vertex 5.31964e-015 -30 -30
      vertex 13 -30 30
      vertex -5.31964e-015 -30 30
    endloop
  endfacet
  facet normal 0 -1 -0
    outer loop
      vertex 13 -30 30
      vertex 5.31964e-015 -30 -30
      vertex 13 -30 -30
    endloop
  endfacet
  facet normal 0 -1 0
    outer loop
      vertex 3.75 12.5 -30
      vertex 13 12.5 30
      vertex 3.75 12.5 30
    endloop
  endfacet
  facet normal 0 -1 -0
    outer loop
      vertex 13 12.5 30
      vertex 3.75 12.5 -30
      vertex 13 12.5 -30
    endloop
  endfacet
  facet normal 1 0 0
    outer loop
      vertex 3.75 12.5 30
      vertex 3.75 6.75 9
      vertex 3.75 12.5 -30
    endloop
  endfacet
  facet normal 1 0 0
    outer loop
      vertex 3.75 12.5 30
      vertex 3.75 4.05 9
      vertex 3.75 6.75 9
    endloop
  endfacet
  facet normal 1 0 0
    outer loop
      vertex 3.75 4.05 9
      vertex 3.75 -4.05 9
      vertex 3.75 4.05 -9
    endloop
  endfacet
  facet normal 1 0 0
    outer loop
      vertex 3.75 12.5 30
      vertex 3.75 -4.05 9
      vertex 3.75 4.05 9
    endloop
  endfacet
  facet normal 1 -0 0
    outer loop
      vertex 3.75 -12.5 30
      vertex 3.75 -4.05 9
      vertex 3.75 12.5 30
    endloop
  endfacet
  facet normal 1 0 0
    outer loop
      vertex 3.75 -6.75 9
      vertex 3.75 -12.5 30
      vertex 3.75 -6.75 -9
    endloop
  endfacet
  facet normal 1 0 0
    outer loop
      vertex 3.75 -4.05 9
      vertex 3.75 -12.5 30
      vertex 3.75 -6.75 9
    endloop
  endfacet
  facet normal 1 -0 0
    outer loop
      vertex 3.75 6.75 -9
      vertex 3.75 12.5 -30
      vertex 3.75 6.75 9
    endloop
  endfacet
  facet normal 1 -0 0
    outer loop
      vertex 3.75 4.05 -9
      vertex 3.75 12.5 -30
      vertex 3.75 6.75 -9
    endloop
  endfacet
  facet normal 1 0 0
    outer loop
      vertex 3.75 -4.05 -9
      vertex 3.75 4.05 -9
      vertex 3.75 -4.05 9
    endloop
  endfacet
  facet normal 1 0 0
    outer loop
      vertex 3.75 4.05 -9
      vertex 3.75 -4.05 -9
      vertex 3.75 12.5 -30
    endloop
  endfacet
  facet normal 1 0 0
    outer loop
      vertex 3.75 -12.5 -30
      vertex 3.75 -4.05 -9
      vertex 3.75 -6.75 -9
    endloop
  endfacet
  facet normal 1 0 0
    outer loop
      vertex 3.75 -4.05 -9
      vertex 3.75 -12.5 -30
      vertex 3.75 12.5 -30
    endloop
  endfacet
  facet normal 1 0 0
    outer loop
      vertex 3.75 -12.5 -30
      vertex 3.75 -6.75 -9
      vertex 3.75 -12.5 30
    endloop
  endfacet
  facet normal 0 1 -0
    outer loop
      vertex 13 -12.5 -30
      vertex 3.75 -12.5 30
      vertex 13 -12.5 30
    endloop
  endfacet
  facet normal 0 1 0
    outer loop
      vertex 3.75 -12.5 30
      vertex 13 -12.5 -30
      vertex 3.75 -12.5 -30
    endloop
  endfacet
  facet normal 0 -0.382683 0.92388
    outer loop
      vertex 13 21.7678 -9.26777
      vertex 1.77321e-015 20 -10
      vertex 13 20 -10
    endloop
  endfacet
  facet normal 0 -0.382683 0.92388
    outer loop
      vertex 1.77321e-015 20 -10
      vertex 13 21.7678 -9.26777
      vertex 1.64337e-015 21.7678 -9.26777
    endloop
  endfacet
  facet normal 0 -0.92388 -0.382683
    outer loop
      vertex 1.32991e-015 22.5 -7.5
      vertex 13 21.7678 -5.73223
      vertex 1.01645e-015 21.7678 -5.73223
    endloop
  endfacet
  facet normal 0 -0.92388 -0.382683
    outer loop
      vertex 13 21.7678 -5.73223
      vertex 1.32991e-015 22.5 -7.5
      vertex 13 22.5 -7.5
    endloop
  endfacet
  facet normal 0 -0.92388 0.382683
    outer loop
      vertex 1.64337e-015 21.7678 -9.26777
      vertex 13 22.5 -7.5
      vertex 1.32991e-015 22.5 -7.5
    endloop
  endfacet
  facet normal 0 -0.92388 0.382683
    outer loop
      vertex 13 22.5 -7.5
      vertex 1.64337e-015 21.7678 -9.26777
      vertex 13 21.7678 -9.26777
    endloop
  endfacet
  facet normal 0 -0.382683 -0.92388
    outer loop
      vertex 13 20 -5
      vertex 1.01645e-015 21.7678 -5.73223
      vertex 13 21.7678 -5.73223
    endloop
  endfacet
  facet normal 0 -0.382683 -0.92388
    outer loop
      vertex 1.01645e-015 21.7678 -5.73223
      vertex 13 20 -5
      vertex 8.86606e-016 20 -5
    endloop
  endfacet
  facet normal -0 0.382683 0.92388
    outer loop
      vertex 1.77321e-015 20 -10
      vertex 13 18.2322 -9.26777
      vertex 13 20 -10
    endloop
  endfacet
  facet normal 0 0.382683 0.92388
    outer loop
      vertex 13 18.2322 -9.26777
      vertex 1.77321e-015 20 -10
      vertex 1.64337e-015 18.2322 -9.26777
    endloop
  endfacet
  facet normal 0 0.92388 -0.382683
    outer loop
      vertex 13 17.5 -7.5
      vertex 1.01645e-015 18.2322 -5.73223
      vertex 13 18.2322 -5.73223
    endloop
  endfacet
  facet normal 0 0.92388 -0.382683
    outer loop
      vertex 1.01645e-015 18.2322 -5.73223
      vertex 13 17.5 -7.5
      vertex 1.32991e-015 17.5 -7.5
    endloop
  endfacet
  facet normal 0 0.382683 -0.92388
    outer loop
      vertex 1.01645e-015 18.2322 -5.73223
      vertex 13 20 -5
      vertex 13 18.2322 -5.73223
    endloop
  endfacet
  facet normal 0 0.382683 -0.92388
    outer loop
      vertex 13 20 -5
      vertex 1.01645e-015 18.2322 -5.73223
      vertex 8.86606e-016 20 -5
    endloop
  endfacet
  facet normal 0 0.92388 0.382682
    outer loop
      vertex 13 18.2322 -9.26777
      vertex 1.32991e-015 17.5 -7.5
      vertex 13 17.5 -7.5
    endloop
  endfacet
  facet normal 0 0.92388 0.382682
    outer loop
      vertex 1.32991e-015 17.5 -7.5
      vertex 13 18.2322 -9.26777
      vertex 1.64337e-015 18.2322 -9.26777
    endloop
  endfacet
  facet normal 0 -0.382683 0.92388
    outer loop
      vertex 13 21.7678 5.73223
      vertex -8.86606e-016 20 5
      vertex 13 20 5
    endloop
  endfacet
  facet normal 0 -0.382683 0.92388
    outer loop
      vertex -8.86606e-016 20 5
      vertex 13 21.7678 5.73223
      vertex -1.01645e-015 21.7678 5.73223
    endloop
  endfacet
  facet normal 0 -0.382683 -0.92388
    outer loop
      vertex 13 20 10
      vertex -1.64337e-015 21.7678 9.26777
      vertex 13 21.7678 9.26777
    endloop
  endfacet
  facet normal 0 -0.382683 -0.92388
    outer loop
      vertex -1.64337e-015 21.7678 9.26777
      vertex 13 20 10
      vertex -1.77321e-015 20 10
    endloop
  endfacet
  facet normal 0 -0.92388 0.382683
    outer loop
      vertex -1.01645e-015 21.7678 5.73223
      vertex 13 22.5 7.5
      vertex -1.32991e-015 22.5 7.5
    endloop
  endfacet
  facet normal 0 -0.92388 0.382683
    outer loop
      vertex 13 22.5 7.5
      vertex -1.01645e-015 21.7678 5.73223
      vertex 13 21.7678 5.73223
    endloop
  endfacet
  facet normal 0 -0.92388 -0.382683
    outer loop
      vertex -1.32991e-015 22.5 7.5
      vertex 13 21.7678 9.26777
      vertex -1.64337e-015 21.7678 9.26777
    endloop
  endfacet
  facet normal 0 -0.92388 -0.382683
    outer loop
      vertex 13 21.7678 9.26777
      vertex -1.32991e-015 22.5 7.5
      vertex 13 22.5 7.5
    endloop
  endfacet
  facet normal -0 0.382683 0.92388
    outer loop
      vertex -8.86606e-016 20 5
      vertex 13 18.2322 5.73223
      vertex 13 20 5
    endloop
  endfacet
  facet normal 0 0.382683 0.92388
    outer loop
      vertex 13 18.2322 5.73223
      vertex -8.86606e-016 20 5
      vertex -1.01645e-015 18.2322 5.73223
    endloop
  endfacet
  facet normal 0 0.92388 0.382682
    outer loop
      vertex 13 18.2322 5.73223
      vertex -1.32991e-015 17.5 7.5
      vertex 13 17.5 7.5
    endloop
  endfacet
  facet normal 0 0.92388 0.382682
    outer loop
      vertex -1.32991e-015 17.5 7.5
      vertex 13 18.2322 5.73223
      vertex -1.01645e-015 18.2322 5.73223
    endloop
  endfacet
  facet normal 0 0.92388 -0.382683
    outer loop
      vertex 13 17.5 7.5
      vertex -1.64337e-015 18.2322 9.26777
      vertex 13 18.2322 9.26777
    endloop
  endfacet
  facet normal 0 0.92388 -0.382683
    outer loop
      vertex -1.64337e-015 18.2322 9.26777
      vertex 13 17.5 7.5
      vertex -1.32991e-015 17.5 7.5
    endloop
  endfacet
  facet normal 0 0.382683 -0.92388
    outer loop
      vertex -1.64337e-015 18.2322 9.26777
      vertex 13 20 10
      vertex 13 18.2322 9.26777
    endloop
  endfacet
  facet normal 0 0.382683 -0.92388
    outer loop
      vertex 13 20 10
      vertex -1.64337e-015 18.2322 9.26777
      vertex -1.77321e-015 20 10
    endloop
  endfacet
  facet normal 0 -0.382683 0.92388
    outer loop
      vertex 13 -18.2322 -9.26777
      vertex 1.77321e-015 -20 -10
      vertex 13 -20 -10
    endloop
  endfacet
  facet normal 0 -0.382683 0.92388
    outer loop
      vertex 1.77321e-015 -20 -10
      vertex 13 -18.2322 -9.26777
      vertex 1.64337e-015 -18.2322 -9.26777
    endloop
  endfacet
  facet normal 0 -0.92388 -0.382682
    outer loop
      vertex 1.32991e-015 -17.5 -7.5
      vertex 13 -18.2322 -5.73223
      vertex 1.01645e-015 -18.2322 -5.73223
    endloop
  endfacet
  facet normal 0 -0.92388 -0.382682
    outer loop
      vertex 13 -18.2322 -5.73223
      vertex 1.32991e-015 -17.5 -7.5
      vertex 13 -17.5 -7.5
    endloop
  endfacet
  facet normal 0 -0.92388 0.382683
    outer loop
      vertex 1.64337e-015 -18.2322 -9.26777
      vertex 13 -17.5 -7.5
      vertex 1.32991e-015 -17.5 -7.5
    endloop
  endfacet
  facet normal 0 -0.92388 0.382683
    outer loop
      vertex 13 -17.5 -7.5
      vertex 1.64337e-015 -18.2322 -9.26777
      vertex 13 -18.2322 -9.26777
    endloop
  endfacet
  facet normal 0 -0.382683 -0.92388
    outer loop
      vertex 13 -20 -5
      vertex 1.01645e-015 -18.2322 -5.73223
      vertex 13 -18.2322 -5.73223
    endloop
  endfacet
  facet normal 0 -0.382683 -0.92388
    outer loop
      vertex 1.01645e-015 -18.2322 -5.73223
      vertex 13 -20 -5
      vertex 8.86606e-016 -20 -5
    endloop
  endfacet
  facet normal -0 0.382683 0.92388
    outer loop
      vertex 1.77321e-015 -20 -10
      vertex 13 -21.7678 -9.26777
      vertex 13 -20 -10
    endloop
  endfacet
  facet normal 0 0.382683 0.92388
    outer loop
      vertex 13 -21.7678 -9.26777
      vertex 1.77321e-015 -20 -10
      vertex 1.64337e-015 -21.7678 -9.26777
    endloop
  endfacet
  facet normal 0 0.92388 -0.382683
    outer loop
      vertex 13 -22.5 -7.5
      vertex 1.01645e-015 -21.7678 -5.73223
      vertex 13 -21.7678 -5.73223
    endloop
  endfacet
  facet normal 0 0.92388 -0.382683
    outer loop
      vertex 1.01645e-015 -21.7678 -5.73223
      vertex 13 -22.5 -7.5
      vertex 1.32991e-015 -22.5 -7.5
    endloop
  endfacet
  facet normal 0 0.382683 -0.92388
    outer loop
      vertex 1.01645e-015 -21.7678 -5.73223
      vertex 13 -20 -5
      vertex 13 -21.7678 -5.73223
    endloop
  endfacet
  facet normal 0 0.382683 -0.92388
    outer loop
      vertex 13 -20 -5
      vertex 1.01645e-015 -21.7678 -5.73223
      vertex 8.86606e-016 -20 -5
    endloop
  endfacet
  facet normal 0 0.92388 0.382683
    outer loop
      vertex 13 -21.7678 -9.26777
      vertex 1.32991e-015 -22.5 -7.5
      vertex 13 -22.5 -7.5
    endloop
  endfacet
  facet normal 0 0.92388 0.382683
    outer loop
      vertex 1.32991e-015 -22.5 -7.5
      vertex 13 -21.7678 -9.26777
      vertex 1.64337e-015 -21.7678 -9.26777
    endloop
  endfacet
  facet normal 0 -0.382683 0.92388
    outer loop
      vertex 13 -18.2322 5.73223
      vertex -8.86606e-016 -20 5
      vertex 13 -20 5
    endloop
  endfacet
  facet normal 0 -0.382683 0.92388
    outer loop
      vertex -8.86606e-016 -20 5
      vertex 13 -18.2322 5.73223
      vertex -1.01645e-015 -18.2322 5.73223
    endloop
  endfacet
  facet normal 0 -0.382683 -0.92388
    outer loop
      vertex 13 -20 10
      vertex -1.64337e-015 -18.2322 9.26777
      vertex 13 -18.2322 9.26777
    endloop
  endfacet
  facet normal 0 -0.382683 -0.92388
    outer loop
      vertex -1.64337e-015 -18.2322 9.26777
      vertex 13 -20 10
      vertex -1.77321e-015 -20 10
    endloop
  endfacet
  facet normal 0 0.92388 0.382683
    outer loop
      vertex 13 -21.7678 5.73223
      vertex -1.32991e-015 -22.5 7.5
      vertex 13 -22.5 7.5
    endloop
  endfacet
  facet normal 0 0.92388 0.382683
    outer loop
      vertex -1.32991e-015 -22.5 7.5
      vertex 13 -21.7678 5.73223
      vertex -1.01645e-015 -21.7678 5.73223
    endloop
  endfacet
  facet normal 0 -0.92388 -0.382683
    outer loop
      vertex -1.32991e-015 -17.5 7.5
      vertex 13 -18.2322 9.26777
      vertex -1.64337e-015 -18.2322 9.26777
    endloop
  endfacet
  facet normal 0 -0.92388 -0.382683
    outer loop
      vertex 13 -18.2322 9.26777
      vertex -1.32991e-015 -17.5 7.5
      vertex 13 -17.5 7.5
    endloop
  endfacet
  facet normal 0 -0.92388 0.382682
    outer loop
      vertex -1.01645e-015 -18.2322 5.73223
      vertex 13 -17.5 7.5
      vertex -1.32991e-015 -17.5 7.5
    endloop
  endfacet
  facet normal 0 -0.92388 0.382682
    outer loop
      vertex 13 -17.5 7.5
      vertex -1.01645e-015 -18.2322 5.73223
      vertex 13 -18.2322 5.73223
    endloop
  endfacet
  facet normal -0 0.382683 0.92388
    outer loop
      vertex -8.86606e-016 -20 5
      vertex 13 -21.7678 5.73223
      vertex 13 -20 5
    endloop
  endfacet
  facet normal 0 0.382683 0.92388
    outer loop
      vertex 13 -21.7678 5.73223
      vertex -8.86606e-016 -20 5
      vertex -1.01645e-015 -21.7678 5.73223
    endloop
  endfacet
  facet normal 0 0.92388 -0.382683
    outer loop
      vertex 13 -22.5 7.5
      vertex -1.64337e-015 -21.7678 9.26777
      vertex 13 -21.7678 9.26777
    endloop
  endfacet
  facet normal 0 0.92388 -0.382683
    outer loop
      vertex -1.64337e-015 -21.7678 9.26777
      vertex 13 -22.5 7.5
      vertex -1.32991e-015 -22.5 7.5
    endloop
  endfacet
  facet normal 0 0.382683 -0.92388
    outer loop
      vertex -1.64337e-015 -21.7678 9.26777
      vertex 13 -20 10
      vertex 13 -21.7678 9.26777
    endloop
  endfacet
  facet normal 0 0.382683 -0.92388
    outer loop
      vertex 13 -20 10
      vertex -1.64337e-015 -21.7678 9.26777
      vertex -1.77321e-015 -20 10
    endloop
  endfacet
  facet normal 0 -0.382683 0.92388
    outer loop
      vertex 13 24.2678 -24.2678
      vertex 4.43303e-015 22.5 -25
      vertex 13 22.5 -25
    endloop
  endfacet
  facet normal 0 -0.382683 0.92388
    outer loop
      vertex 4.43303e-015 22.5 -25
      vertex 13 24.2678 -24.2678
      vertex 4.30319e-015 24.2678 -24.2678
    endloop
  endfacet
  facet normal 0 -0.92388 -0.382683
    outer loop
      vertex 3.98973e-015 25 -22.5
      vertex 13 24.2678 -20.7322
      vertex 3.67627e-015 24.2678 -20.7322
    endloop
  endfacet
  facet normal 0 -0.92388 -0.382683
    outer loop
      vertex 13 24.2678 -20.7322
      vertex 3.98973e-015 25 -22.5
      vertex 13 25 -22.5
    endloop
  endfacet
  facet normal 0 -0.92388 0.382683
    outer loop
      vertex 4.30319e-015 24.2678 -24.2678
      vertex 13 25 -22.5
      vertex 3.98973e-015 25 -22.5
    endloop
  endfacet
  facet normal 0 -0.92388 0.382683
    outer loop
      vertex 13 25 -22.5
      vertex 4.30319e-015 24.2678 -24.2678
      vertex 13 24.2678 -24.2678
    endloop
  endfacet
  facet normal 0 -0.382683 -0.92388
    outer loop
      vertex 13 22.5 -20
      vertex 3.67627e-015 24.2678 -20.7322
      vertex 13 24.2678 -20.7322
    endloop
  endfacet
  facet normal 0 -0.382683 -0.92388
    outer loop
      vertex 3.67627e-015 24.2678 -20.7322
      vertex 13 22.5 -20
      vertex 3.54643e-015 22.5 -20
    endloop
  endfacet
  facet normal -0 0.382683 0.92388
    outer loop
      vertex 4.43303e-015 22.5 -25
      vertex 13 20.7322 -24.2678
      vertex 13 22.5 -25
    endloop
  endfacet
  facet normal 0 0.382683 0.92388
    outer loop
      vertex 13 20.7322 -24.2678
      vertex 4.43303e-015 22.5 -25
      vertex 4.30319e-015 20.7322 -24.2678
    endloop
  endfacet
  facet normal 0 0.92388 -0.382682
    outer loop
      vertex 13 20 -22.5
      vertex 3.67627e-015 20.7322 -20.7322
      vertex 13 20.7322 -20.7322
    endloop
  endfacet
  facet normal 0 0.92388 -0.382682
    outer loop
      vertex 3.67627e-015 20.7322 -20.7322
      vertex 13 20 -22.5
      vertex 3.98973e-015 20 -22.5
    endloop
  endfacet
  facet normal 0 0.382682 -0.92388
    outer loop
      vertex 3.67627e-015 20.7322 -20.7322
      vertex 13 22.5 -20
      vertex 13 20.7322 -20.7322
    endloop
  endfacet
  facet normal 0 0.382682 -0.92388
    outer loop
      vertex 13 22.5 -20
      vertex 3.67627e-015 20.7322 -20.7322
      vertex 3.54643e-015 22.5 -20
    endloop
  endfacet
  facet normal 0 0.92388 0.382683
    outer loop
      vertex 13 20.7322 -24.2678
      vertex 3.98973e-015 20 -22.5
      vertex 13 20 -22.5
    endloop
  endfacet
  facet normal 0 0.92388 0.382683
    outer loop
      vertex 3.98973e-015 20 -22.5
      vertex 13 20.7322 -24.2678
      vertex 4.30319e-015 20.7322 -24.2678
    endloop
  endfacet
  facet normal 0 -0.382683 0.92388
    outer loop
      vertex 13 24.2678 20.7322
      vertex -3.54643e-015 22.5 20
      vertex 13 22.5 20
    endloop
  endfacet
  facet normal 0 -0.382683 0.92388
    outer loop
      vertex -3.54643e-015 22.5 20
      vertex 13 24.2678 20.7322
      vertex -3.67627e-015 24.2678 20.7322
    endloop
  endfacet
  facet normal 0 -0.382683 -0.92388
    outer loop
      vertex 13 22.5 25
      vertex -4.30319e-015 24.2678 24.2678
      vertex 13 24.2678 24.2678
    endloop
  endfacet
  facet normal 0 -0.382683 -0.92388
    outer loop
      vertex -4.30319e-015 24.2678 24.2678
      vertex 13 22.5 25
      vertex -4.43303e-015 22.5 25
    endloop
  endfacet
  facet normal 0 -0.92388 0.382683
    outer loop
      vertex -3.67627e-015 24.2678 20.7322
      vertex 13 25 22.5
      vertex -3.98973e-015 25 22.5
    endloop
  endfacet
  facet normal 0 -0.92388 0.382683
    outer loop
      vertex 13 25 22.5
      vertex -3.67627e-015 24.2678 20.7322
      vertex 13 24.2678 20.7322
    endloop
  endfacet
  facet normal 0 -0.92388 -0.382683
    outer loop
      vertex -3.98973e-015 25 22.5
      vertex 13 24.2678 24.2678
      vertex -4.30319e-015 24.2678 24.2678
    endloop
  endfacet
  facet normal 0 -0.92388 -0.382683
    outer loop
      vertex 13 24.2678 24.2678
      vertex -3.98973e-015 25 22.5
      vertex 13 25 22.5
    endloop
  endfacet
  facet normal -0 0.382682 0.92388
    outer loop
      vertex -3.54643e-015 22.5 20
      vertex 13 20.7322 20.7322
      vertex 13 22.5 20
    endloop
  endfacet
  facet normal 0 0.382682 0.92388
    outer loop
      vertex 13 20.7322 20.7322
      vertex -3.54643e-015 22.5 20
      vertex -3.67627e-015 20.7322 20.7322
    endloop
  endfacet
  facet normal 0 0.92388 0.382682
    outer loop
      vertex 13 20.7322 20.7322
      vertex -3.98973e-015 20 22.5
      vertex 13 20 22.5
    endloop
  endfacet
  facet normal 0 0.92388 0.382682
    outer loop
      vertex -3.98973e-015 20 22.5
      vertex 13 20.7322 20.7322
      vertex -3.67627e-015 20.7322 20.7322
    endloop
  endfacet
  facet normal 0 0.92388 -0.382683
    outer loop
      vertex 13 20 22.5
      vertex -4.30319e-015 20.7322 24.2678
      vertex 13 20.7322 24.2678
    endloop
  endfacet
  facet normal 0 0.92388 -0.382683
    outer loop
      vertex -4.30319e-015 20.7322 24.2678
      vertex 13 20 22.5
      vertex -3.98973e-015 20 22.5
    endloop
  endfacet
  facet normal 0 0.382683 -0.92388
    outer loop
      vertex -4.30319e-015 20.7322 24.2678
      vertex 13 22.5 25
      vertex 13 20.7322 24.2678
    endloop
  endfacet
  facet normal 0 0.382683 -0.92388
    outer loop
      vertex 13 22.5 25
      vertex -4.30319e-015 20.7322 24.2678
      vertex -4.43303e-015 22.5 25
    endloop
  endfacet
  facet normal 0 -0.382683 0.92388
    outer loop
      vertex 13 -20.7322 -24.2678
      vertex 4.43303e-015 -22.5 -25
      vertex 13 -22.5 -25
    endloop
  endfacet
  facet normal 0 -0.382683 0.92388
    outer loop
      vertex 4.43303e-015 -22.5 -25
      vertex 13 -20.7322 -24.2678
      vertex 4.30319e-015 -20.7322 -24.2678
    endloop
  endfacet
  facet normal 0 0.382683 -0.92388
    outer loop
      vertex 3.67627e-015 -24.2678 -20.7322
      vertex 13 -22.5 -20
      vertex 13 -24.2678 -20.7322
    endloop
  endfacet
  facet normal 0 0.382683 -0.92388
    outer loop
      vertex 13 -22.5 -20
      vertex 3.67627e-015 -24.2678 -20.7322
      vertex 3.54643e-015 -22.5 -20
    endloop
  endfacet
  facet normal 0 -0.92388 -0.382682
    outer loop
      vertex 3.98973e-015 -20 -22.5
      vertex 13 -20.7322 -20.7322
      vertex 3.67627e-015 -20.7322 -20.7322
    endloop
  endfacet
  facet normal 0 -0.92388 -0.382682
    outer loop
      vertex 13 -20.7322 -20.7322
      vertex 3.98973e-015 -20 -22.5
      vertex 13 -20 -22.5
    endloop
  endfacet
  facet normal 0 -0.92388 0.382683
    outer loop
      vertex 4.30319e-015 -20.7322 -24.2678
      vertex 13 -20 -22.5
      vertex 3.98973e-015 -20 -22.5
    endloop
  endfacet
  facet normal 0 -0.92388 0.382683
    outer loop
      vertex 13 -20 -22.5
      vertex 4.30319e-015 -20.7322 -24.2678
      vertex 13 -20.7322 -24.2678
    endloop
  endfacet
  facet normal 0 -0.382682 -0.92388
    outer loop
      vertex 13 -22.5 -20
      vertex 3.67627e-015 -20.7322 -20.7322
      vertex 13 -20.7322 -20.7322
    endloop
  endfacet
  facet normal 0 -0.382682 -0.92388
    outer loop
      vertex 3.67627e-015 -20.7322 -20.7322
      vertex 13 -22.5 -20
      vertex 3.54643e-015 -22.5 -20
    endloop
  endfacet
  facet normal -0 0.382683 0.92388
    outer loop
      vertex 4.43303e-015 -22.5 -25
      vertex 13 -24.2678 -24.2678
      vertex 13 -22.5 -25
    endloop
  endfacet
  facet normal 0 0.382683 0.92388
    outer loop
      vertex 13 -24.2678 -24.2678
      vertex 4.43303e-015 -22.5 -25
      vertex 4.30319e-015 -24.2678 -24.2678
    endloop
  endfacet
  facet normal 0 0.92388 0.382683
    outer loop
      vertex 13 -24.2678 -24.2678
      vertex 3.98973e-015 -25 -22.5
      vertex 13 -25 -22.5
    endloop
  endfacet
  facet normal 0 0.92388 0.382683
    outer loop
      vertex 3.98973e-015 -25 -22.5
      vertex 13 -24.2678 -24.2678
      vertex 4.30319e-015 -24.2678 -24.2678
    endloop
  endfacet
  facet normal 0 0.92388 -0.382683
    outer loop
      vertex 13 -25 -22.5
      vertex 3.67627e-015 -24.2678 -20.7322
      vertex 13 -24.2678 -20.7322
    endloop
  endfacet
  facet normal 0 0.92388 -0.382683
    outer loop
      vertex 3.67627e-015 -24.2678 -20.7322
      vertex 13 -25 -22.5
      vertex 3.98973e-015 -25 -22.5
    endloop
  endfacet
  facet normal 0 -0.382682 0.92388
    outer loop
      vertex 13 -20.7322 20.7322
      vertex -3.54643e-015 -22.5 20
      vertex 13 -22.5 20
    endloop
  endfacet
  facet normal 0 -0.382682 0.92388
    outer loop
      vertex -3.54643e-015 -22.5 20
      vertex 13 -20.7322 20.7322
      vertex -3.67627e-015 -20.7322 20.7322
    endloop
  endfacet
  facet normal 0 -0.382683 -0.92388
    outer loop
      vertex 13 -22.5 25
      vertex -4.30319e-015 -20.7322 24.2678
      vertex 13 -20.7322 24.2678
    endloop
  endfacet
  facet normal 0 -0.382683 -0.92388
    outer loop
      vertex -4.30319e-015 -20.7322 24.2678
      vertex 13 -22.5 25
      vertex -4.43303e-015 -22.5 25
    endloop
  endfacet
  facet normal 0 0.92388 0.382683
    outer loop
      vertex 13 -24.2678 20.7322
      vertex -3.98973e-015 -25 22.5
      vertex 13 -25 22.5
    endloop
  endfacet
  facet normal 0 0.92388 0.382683
    outer loop
      vertex -3.98973e-015 -25 22.5
      vertex 13 -24.2678 20.7322
      vertex -3.67627e-015 -24.2678 20.7322
    endloop
  endfacet
  facet normal 0 -0.92388 -0.382683
    outer loop
      vertex -3.98973e-015 -20 22.5
      vertex 13 -20.7322 24.2678
      vertex -4.30319e-015 -20.7322 24.2678
    endloop
  endfacet
  facet normal 0 -0.92388 -0.382683
    outer loop
      vertex 13 -20.7322 24.2678
      vertex -3.98973e-015 -20 22.5
      vertex 13 -20 22.5
    endloop
  endfacet
  facet normal 0 -0.92388 0.382682
    outer loop
      vertex -3.67627e-015 -20.7322 20.7322
      vertex 13 -20 22.5
      vertex -3.98973e-015 -20 22.5
    endloop
  endfacet
  facet normal 0 -0.92388 0.382682
    outer loop
      vertex 13 -20 22.5
      vertex -3.67627e-015 -20.7322 20.7322
      vertex 13 -20.7322 20.7322
    endloop
  endfacet
  facet normal -0 0.382683 0.92388
    outer loop
      vertex -3.54643e-015 -22.5 20
      vertex 13 -24.2678 20.7322
      vertex 13 -22.5 20
    endloop
  endfacet
  facet normal 0 0.382683 0.92388
    outer loop
      vertex 13 -24.2678 20.7322
      vertex -3.54643e-015 -22.5 20
      vertex -3.67627e-015 -24.2678 20.7322
    endloop
  endfacet
  facet normal 0 0.92388 -0.382683
    outer loop
      vertex 13 -25 22.5
      vertex -4.30319e-015 -24.2678 24.2678
      vertex 13 -24.2678 24.2678
    endloop
  endfacet
  facet normal 0 0.92388 -0.382683
    outer loop
      vertex -4.30319e-015 -24.2678 24.2678
      vertex 13 -25 22.5
      vertex -3.98973e-015 -25 22.5
    endloop
  endfacet
  facet normal 0 0.382683 -0.92388
    outer loop
      vertex -4.30319e-015 -24.2678 24.2678
      vertex 13 -22.5 25
      vertex 13 -24.2678 24.2678
    endloop
  endfacet
  facet normal 0 0.382683 -0.92388
    outer loop
      vertex 13 -22.5 25
      vertex -4.30319e-015 -24.2678 24.2678
      vertex -4.43303e-015 -22.5 25
    endloop
  endfacet
  facet normal 0 1 0
    outer loop
      vertex 7.5 6.75 -9
      vertex 3.75 6.75 9
      vertex 7.5 6.75 9
    endloop
  endfacet
  facet normal 0 1 0
    outer loop
      vertex 3.75 6.75 9
      vertex 7.5 6.75 -9
      vertex 3.75 6.75 -9
    endloop
  endfacet
  facet normal 1 -0 5.29819e-008
    outer loop
      vertex 7.5 4.05 9
      vertex 7.5 6.75 -9
      vertex 7.5 6.75 9
    endloop
  endfacet
  facet normal 1 0 5.29819e-008
    outer loop
      vertex 7.5 6.75 -9
      vertex 7.5 4.05 9
      vertex 7.5 4.05 -9
    endloop
  endfacet
  facet normal 2.54313e-007 0 -1
    outer loop
      vertex 3.75 4.05 -9
      vertex 7.5 6.75 -9
      vertex 7.5 4.05 -9
    endloop
  endfacet
  facet normal 2.54313e-007 0 -1
    outer loop
      vertex 7.5 6.75 -9
      vertex 3.75 4.05 -9
      vertex 3.75 6.75 -9
    endloop
  endfacet
  facet normal -0 0 1
    outer loop
      vertex 3.75 6.75 9
      vertex 7.5 4.05 9
      vertex 7.5 6.75 9
    endloop
  endfacet
  facet normal 0 0 1
    outer loop
      vertex 7.5 4.05 9
      vertex 3.75 6.75 9
      vertex 3.75 4.05 9
    endloop
  endfacet
  facet normal 0 -1 0
    outer loop
      vertex 3.75 4.05 9
      vertex 7.5 4.05 -9
      vertex 7.5 4.05 9
    endloop
  endfacet
  facet normal -0 -1 0
    outer loop
      vertex 7.5 4.05 -9
      vertex 3.75 4.05 9
      vertex 3.75 4.05 -9
    endloop
  endfacet
  facet normal 0 1 0
    outer loop
      vertex 7.5 -4.05 -9
      vertex 3.75 -4.05 9
      vertex 7.5 -4.05 9
    endloop
  endfacet
  facet normal 0 1 0
    outer loop
      vertex 3.75 -4.05 9
      vertex 7.5 -4.05 -9
      vertex 3.75 -4.05 -9
    endloop
  endfacet
  facet normal 1 -0 5.29819e-008
    outer loop
      vertex 7.5 -6.75 9
      vertex 7.5 -4.05 -9
      vertex 7.5 -4.05 9
    endloop
  endfacet
  facet normal 1 0 5.29819e-008
    outer loop
      vertex 7.5 -4.05 -9
      vertex 7.5 -6.75 9
      vertex 7.5 -6.75 -9
    endloop
  endfacet
  facet normal 2.54313e-007 0 -1
    outer loop
      vertex 3.75 -6.75 -9
      vertex 7.5 -4.05 -9
      vertex 7.5 -6.75 -9
    endloop
  endfacet
  facet normal 2.54313e-007 0 -1
    outer loop
      vertex 7.5 -4.05 -9
      vertex 3.75 -6.75 -9
      vertex 3.75 -4.05 -9
    endloop
  endfacet
  facet normal -0 0 1
    outer loop
      vertex 3.75 -4.05 9
      vertex 7.5 -6.75 9
      vertex 7.5 -4.05 9
    endloop
  endfacet
  facet normal 0 0 1
    outer loop
      vertex 7.5 -6.75 9
      vertex 3.75 -4.05 9
      vertex 3.75 -6.75 9
    endloop
  endfacet
  facet normal 0 -1 0
    outer loop
      vertex 3.75 -6.75 9
      vertex 7.5 -6.75 -9
      vertex 7.5 -6.75 9
    endloop
  endfacet
  facet normal -0 -1 0
    outer loop
      vertex 7.5 -6.75 -9
      vertex 3.75 -6.75 9
      vertex 3.75 -6.75 -9
    endloop
  endfacet
endsolid OpenSCAD_Model
