solid TrackBlock2
facet normal 0.0 0.0 -1.0
  outer loop
    vertex 30.021223 25.003065 4.005386
    vertex 23.982841499999996 21.608242480400126 4.005386
    vertex 23.982841499999996 25.003065 4.005386
  endloop
endfacet
facet normal 0.0 0.0 -1.0
  outer loop
    vertex 23.982841499999996 21.608242480400126 4.005386
    vertex 30.021223 25.003065 4.005386
    vertex 23.982841499999996 18.756815480400128 4.005386
  endloop
endfacet
facet normal 0.0 0.0 -1.0
  outer loop
    vertex 23.982841499999996 18.756815480400128 4.005386
    vertex 15.0106115 0.0 4.005386
    vertex 15.0106115 18.756815480400128 4.005386
  endloop
endfacet
facet normal 0.0 0.0 -1.0
  outer loop
    vertex 15.0106115 0.0 4.005386
    vertex 23.982841499999996 18.756815480400128 4.005386
    vertex 30.021223 0.0 4.005386
  endloop
endfacet
facet normal 0.0 0.0 -1.0
  outer loop
    vertex 30.021223 0.0 4.005386
    vertex 23.982841499999996 18.756815480400128 4.005386
    vertex 30.021223 25.003065 4.005386
  endloop
endfacet
facet normal 1.0 -0.0 -0.0
  outer loop
    vertex 0.0 50.00613 0.0
    vertex 0.0 0.0 4.005386
    vertex 0.0 0.0 0.0
  endloop
endfacet
facet normal 1.0 -0.0 -0.0
  outer loop
    vertex 0.0 0.0 4.005386
    vertex 0.0 50.00613 0.0
    vertex 0.0 25.003065 4.005386
  endloop
endfacet
facet normal 1.0 -0.0 -0.0
  outer loop
    vertex 0.0 25.003065 4.005386
    vertex 0.0 50.00613 0.0
    vertex 0.0 50.00613 4.005386
  endloop
endfacet
facet normal 0.0 -1.0 -0.0
  outer loop
    vertex 30.021223 50.00613 4.005386
    vertex 0.0 50.00613 0.0
    vertex 30.021223 50.00613 0.0
  endloop
endfacet
facet normal 0.0 -1.0 -0.0
  outer loop
    vertex 0.0 50.00613 0.0
    vertex 30.021223 50.00613 4.005386
    vertex 0.0 50.00613 4.005386
  endloop
endfacet
facet normal 0.0 -1.0 -0.0
  outer loop
    vertex 0.0 50.00613 4.005386
    vertex 30.021223 50.00613 4.005386
    vertex 15.0106115 50.00613 4.005386
  endloop
endfacet
facet normal -1.0 -0.0 -0.0
  outer loop
    vertex 30.021223 25.003065 4.005386
    vertex 30.021223 0.0 0.0
    vertex 30.021223 0.0 4.005386
  endloop
endfacet
facet normal -1.0 -0.0 -0.0
  outer loop
    vertex 30.021223 0.0 0.0
    vertex 30.021223 25.003065 4.005386
    vertex 30.021223 50.00613 0.0
  endloop
endfacet
facet normal -1.0 -0.0 -0.0
  outer loop
    vertex 30.021223 50.00613 0.0
    vertex 30.021223 25.003065 4.005386
    vertex 30.021223 50.00613 4.005386
  endloop
endfacet
facet normal 0.0 1.0 0.0
  outer loop
    vertex 0.0 0.0 4.005386
    vertex 30.021223 0.0 0.0
    vertex 0.0 0.0 0.0
  endloop
endfacet
facet normal 0.0 1.0 0.0
  outer loop
    vertex 30.021223 0.0 0.0
    vertex 0.0 0.0 4.005386
    vertex 30.021223 0.0 4.005386
  endloop
endfacet
facet normal 0.0 1.0 0.0
  outer loop
    vertex 30.021223 0.0 4.005386
    vertex 0.0 0.0 4.005386
    vertex 15.0106115 0.0 4.005386
  endloop
endfacet
facet normal 0.0 0.0 -1.0
  outer loop
    vertex 6.0123865 25.003065 4.005386
    vertex 0.0 0.0 4.005386
    vertex 0.0 25.003065 4.005386
  endloop
endfacet
facet normal 0.0 0.0 -1.0
  outer loop
    vertex 0.0 0.0 4.005386
    vertex 6.0123865 25.003065 4.005386
    vertex 6.0123865 18.756815480400128 4.005386
  endloop
endfacet
facet normal 0.0 0.0 -1.0
  outer loop
    vertex 0.0 0.0 4.005386
    vertex 6.0123865 18.756815480400128 4.005386
    vertex 15.0106115 0.0 4.005386
  endloop
endfacet
facet normal 0.0 0.0 -1.0
  outer loop
    vertex 6.0123865 18.756815480400128 4.005386
    vertex 6.0123865 25.003065 4.005386
    vertex 6.0123865 21.608242480400126 4.005386
  endloop
endfacet
facet normal 0.0 0.0 -1.0
  outer loop
    vertex 15.0106115 0.0 4.005386
    vertex 6.0123865 18.756815480400128 4.005386
    vertex 15.0106115 18.756815480400128 4.005386
  endloop
endfacet
facet normal 0.0 0.0 -1.0
  outer loop
    vertex 30.021223 50.00613 4.005386
    vertex 15.0106115 31.201701999999997 4.005386
    vertex 15.0106115 50.00613 4.005386
  endloop
endfacet
facet normal 0.0 0.0 -1.0
  outer loop
    vertex 15.0106115 31.201701999999997 4.005386
    vertex 30.021223 50.00613 4.005386
    vertex 23.982841499999996 31.201701999999997 4.005386
  endloop
endfacet
facet normal 0.0 0.0 -1.0
  outer loop
    vertex 23.982841499999996 31.201701999999997 4.005386
    vertex 30.021223 50.00613 4.005386
    vertex 23.982841499999996 28.405977 4.005386
  endloop
endfacet
facet normal 0.0 0.0 -1.0
  outer loop
    vertex 23.982841499999996 28.405977 4.005386
    vertex 30.021223 50.00613 4.005386
    vertex 23.982841499999996 25.003065 4.005386
  endloop
endfacet
facet normal 0.0 0.0 -1.0
  outer loop
    vertex 23.982841499999996 25.003065 4.005386
    vertex 30.021223 50.00613 4.005386
    vertex 30.021223 25.003065 4.005386
  endloop
endfacet
facet normal 0.0 0.0 -1.0
  outer loop
    vertex 16.2249135 28.405977 4.005386
    vertex 15.0106115 25.003065 4.005386
    vertex 15.0106115 28.405977 4.005386
  endloop
endfacet
facet normal 0.0 0.0 -1.0
  outer loop
    vertex 15.0106115 25.003065 4.005386
    vertex 16.2249135 28.405977 4.005386
    vertex 23.982841499999996 25.003065 4.005386
  endloop
endfacet
facet normal 0.0 0.0 -1.0
  outer loop
    vertex 23.982841499999996 25.003065 4.005386
    vertex 16.2249135 28.405977 4.005386
    vertex 23.982841499999996 28.405977 4.005386
  endloop
endfacet
facet normal 0.0 0.0 -1.0
  outer loop
    vertex 23.982841499999996 25.003065 4.005386
    vertex 15.0106115 21.608242480400126 4.005386
    vertex 15.0106115 25.003065 4.005386
  endloop
endfacet
facet normal 0.0 0.0 -1.0
  outer loop
    vertex 15.0106115 21.608242480400126 4.005386
    vertex 23.982841499999996 25.003065 4.005386
    vertex 16.0519735 21.608242480400126 4.005386
  endloop
endfacet
facet normal 0.0 0.0 -1.0
  outer loop
    vertex 16.0519735 21.608242480400126 4.005386
    vertex 23.982841499999996 25.003065 4.005386
    vertex 23.982841499999996 21.608242480400126 4.005386
  endloop
endfacet
facet normal 0.0 0.0 -1.0
  outer loop
    vertex 15.0106115 25.003065 4.005386
    vertex 6.0123865 21.608242480400126 4.005386
    vertex 6.0123865 25.003065 4.005386
  endloop
endfacet
facet normal 0.0 0.0 -1.0
  outer loop
    vertex 6.0123865 21.608242480400126 4.005386
    vertex 15.0106115 25.003065 4.005386
    vertex 14.285014499999999 21.608242480400126 4.005386
  endloop
endfacet
facet normal 0.0 0.0 -1.0
  outer loop
    vertex 14.285014499999999 21.608242480400126 4.005386
    vertex 15.0106115 25.003065 4.005386
    vertex 15.0106115 21.608242480400126 4.005386
  endloop
endfacet
facet normal 0.0 0.0 -1.0
  outer loop
    vertex 13.9598865 28.405977 4.005386
    vertex 6.0123865 25.003065 4.005386
    vertex 6.0123865 28.405977 4.005386
  endloop
endfacet
facet normal 0.0 0.0 -1.0
  outer loop
    vertex 6.0123865 25.003065 4.005386
    vertex 13.9598865 28.405977 4.005386
    vertex 15.0106115 25.003065 4.005386
  endloop
endfacet
facet normal 0.0 0.0 -1.0
  outer loop
    vertex 15.0106115 25.003065 4.005386
    vertex 13.9598865 28.405977 4.005386
    vertex 15.0106115 28.405977 4.005386
  endloop
endfacet
facet normal 0.0 0.0 -1.0
  outer loop
    vertex 15.0106115 50.00613 4.005386
    vertex 0.0 25.003065 4.005386
    vertex 0.0 50.00613 4.005386
  endloop
endfacet
facet normal 0.0 0.0 -1.0
  outer loop
    vertex 0.0 25.003065 4.005386
    vertex 15.0106115 50.00613 4.005386
    vertex 6.0123865 31.201701999999997 4.005386
  endloop
endfacet
facet normal 0.0 0.0 -1.0
  outer loop
    vertex 6.0123865 31.201701999999997 4.005386
    vertex 15.0106115 50.00613 4.005386
    vertex 15.0106115 31.201701999999997 4.005386
  endloop
endfacet
facet normal 0.0 0.0 -1.0
  outer loop
    vertex 6.0123865 31.201701999999997 4.005386
    vertex 6.0123865 25.003065 4.005386
    vertex 0.0 25.003065 4.005386
  endloop
endfacet
facet normal 0.0 0.0 -1.0
  outer loop
    vertex 6.0123865 25.003065 4.005386
    vertex 6.0123865 31.201701999999997 4.005386
    vertex 6.0123865 28.405977 4.005386
  endloop
endfacet
facet normal 0.0 0.0 -1.0
  outer loop
    vertex 15.0106115 31.201701999999997 6.767867000000001
    vertex 6.0123865 28.405977 6.767867000000001
    vertex 6.0123865 31.201701999999997 6.767867000000001
  endloop
endfacet
facet normal 0.0 0.0 -1.0
  outer loop
    vertex 6.0123865 28.405977 6.767867000000001
    vertex 15.0106115 31.201701999999997 6.767867000000001
    vertex 13.9598865 28.405977 6.767867000000001
  endloop
endfacet
facet normal 0.0 0.0 -1.0
  outer loop
    vertex 13.9598865 28.405977 6.767867000000001
    vertex 15.0106115 31.201701999999997 6.767867000000001
    vertex 15.0106115 28.405977 6.767867000000001
  endloop
endfacet
facet normal 0.0 0.0 -1.0
  outer loop
    vertex 15.0106115 28.405977 6.767867000000001
    vertex 15.0106115 31.201701999999997 6.767867000000001
    vertex 23.982841499999996 31.201701999999997 6.767867000000001
  endloop
endfacet
facet normal 0.0 0.0 -1.0
  outer loop
    vertex 15.0106115 28.405977 6.767867000000001
    vertex 23.982841499999996 31.201701999999997 6.767867000000001
    vertex 16.2249135 28.405977 6.767867000000001
  endloop
endfacet
facet normal 0.0 0.0 -1.0
  outer loop
    vertex 16.2249135 28.405977 6.767867000000001
    vertex 23.982841499999996 31.201701999999997 6.767867000000001
    vertex 23.982841499999996 28.405977 6.767867000000001
  endloop
endfacet
facet normal 0.0 1.0 0.0
  outer loop
    vertex 15.0106115 28.405977 6.767867000000001
    vertex 16.2249135 28.405977 4.005386
    vertex 15.0106115 28.405977 4.005386
  endloop
endfacet
facet normal 0.0 1.0 0.0
  outer loop
    vertex 16.2249135 28.405977 4.005386
    vertex 15.0106115 28.405977 6.767867000000001
    vertex 16.2249135 28.405977 6.767867000000001
  endloop
endfacet
facet normal 0.0 1.0 0.0
  outer loop
    vertex 13.9598865 28.405977 6.767867000000001
    vertex 15.0106115 28.405977 4.005386
    vertex 13.9598865 28.405977 4.005386
  endloop
endfacet
facet normal 0.0 1.0 0.0
  outer loop
    vertex 15.0106115 28.405977 4.005386
    vertex 13.9598865 28.405977 6.767867000000001
    vertex 15.0106115 28.405977 6.767867000000001
  endloop
endfacet
facet normal 0.0 1.0 0.0
  outer loop
    vertex 6.0123865 28.405977 6.767867000000001
    vertex 13.9598865 28.405977 4.005386
    vertex 6.0123865 28.405977 4.005386
  endloop
endfacet
facet normal 0.0 1.0 0.0
  outer loop
    vertex 13.9598865 28.405977 4.005386
    vertex 6.0123865 28.405977 6.767867000000001
    vertex 13.9598865 28.405977 6.767867000000001
  endloop
endfacet
facet normal 1.0 -0.0 -0.0
  outer loop
    vertex 6.0123865 31.201701999999997 4.005386
    vertex 6.0123865 28.405977 6.767867000000001
    vertex 6.0123865 28.405977 4.005386
  endloop
endfacet
facet normal 1.0 -0.0 -0.0
  outer loop
    vertex 6.0123865 28.405977 6.767867000000001
    vertex 6.0123865 31.201701999999997 4.005386
    vertex 6.0123865 31.201701999999997 6.767867000000001
  endloop
endfacet
facet normal 0.0 -1.0 0.0
  outer loop
    vertex 15.0106115 31.201701999999997 6.767867000000001
    vertex 6.0123865 31.201701999999997 4.005386
    vertex 15.0106115 31.201701999999997 4.005386
  endloop
endfacet
facet normal 0.0 -1.0 0.0
  outer loop
    vertex 6.0123865 31.201701999999997 4.005386
    vertex 15.0106115 31.201701999999997 6.767867000000001
    vertex 6.0123865 31.201701999999997 6.767867000000001
  endloop
endfacet
facet normal 0.0 -1.0 0.0
  outer loop
    vertex 23.982841499999996 31.201701999999997 6.767867000000001
    vertex 15.0106115 31.201701999999997 4.005386
    vertex 23.982841499999996 31.201701999999997 4.005386
  endloop
endfacet
facet normal 0.0 -1.0 0.0
  outer loop
    vertex 15.0106115 31.201701999999997 4.005386
    vertex 23.982841499999996 31.201701999999997 6.767867000000001
    vertex 15.0106115 31.201701999999997 6.767867000000001
  endloop
endfacet
facet normal -1.0 0.0 0.0
  outer loop
    vertex 23.982841499999996 31.201701999999997 6.767867000000001
    vertex 23.982841499999996 28.405977 4.005386
    vertex 23.982841499999996 28.405977 6.767867000000001
  endloop
endfacet
facet normal -1.0 0.0 0.0
  outer loop
    vertex 23.982841499999996 28.405977 4.005386
    vertex 23.982841499999996 31.201701999999997 6.767867000000001
    vertex 23.982841499999996 31.201701999999997 4.005386
  endloop
endfacet
facet normal 0.0 1.0 0.0
  outer loop
    vertex 16.2249135 28.405977 6.767867000000001
    vertex 23.982841499999996 28.405977 4.005386
    vertex 16.2249135 28.405977 4.005386
  endloop
endfacet
facet normal 0.0 1.0 0.0
  outer loop
    vertex 23.982841499999996 28.405977 4.005386
    vertex 16.2249135 28.405977 6.767867000000001
    vertex 23.982841499999996 28.405977 6.767867000000001
  endloop
endfacet
facet normal 0.0 0.0 -1.0
  outer loop
    vertex 14.285014499999999 21.608242480400126 6.767867000000001
    vertex 6.0123865 18.756815480400128 6.767867000000001
    vertex 6.0123865 21.608242480400126 6.767867000000001
  endloop
endfacet
facet normal 0.0 0.0 -1.0
  outer loop
    vertex 6.0123865 18.756815480400128 6.767867000000001
    vertex 14.285014499999999 21.608242480400126 6.767867000000001
    vertex 15.0106115 18.756815480400128 6.767867000000001
  endloop
endfacet
facet normal 0.0 0.0 -1.0
  outer loop
    vertex 15.0106115 18.756815480400128 6.767867000000001
    vertex 14.285014499999999 21.608242480400126 6.767867000000001
    vertex 15.0106115 21.608242480400126 6.767867000000001
  endloop
endfacet
facet normal 0.0 0.0 -1.0
  outer loop
    vertex 15.0106115 18.756815480400128 6.767867000000001
    vertex 15.0106115 21.608242480400126 6.767867000000001
    vertex 16.0519735 21.608242480400126 6.767867000000001
  endloop
endfacet
facet normal 0.0 0.0 -1.0
  outer loop
    vertex 15.0106115 18.756815480400128 6.767867000000001
    vertex 16.0519735 21.608242480400126 6.767867000000001
    vertex 23.982841499999996 18.756815480400128 6.767867000000001
  endloop
endfacet
facet normal 0.0 0.0 -1.0
  outer loop
    vertex 23.982841499999996 18.756815480400128 6.767867000000001
    vertex 16.0519735 21.608242480400126 6.767867000000001
    vertex 23.982841499999996 21.608242480400126 6.767867000000001
  endloop
endfacet
facet normal -0.0 1.0 -0.0
  outer loop
    vertex 15.0106115 18.756815480400128 6.767867000000001
    vertex 23.982841499999996 18.756815480400128 4.005386
    vertex 15.0106115 18.756815480400128 4.005386
  endloop
endfacet
facet normal -0.0 1.0 -0.0
  outer loop
    vertex 23.982841499999996 18.756815480400128 4.005386
    vertex 15.0106115 18.756815480400128 6.767867000000001
    vertex 23.982841499999996 18.756815480400128 6.767867000000001
  endloop
endfacet
facet normal -0.0 1.0 -0.0
  outer loop
    vertex 6.0123865 18.756815480400128 6.767867000000001
    vertex 15.0106115 18.756815480400128 4.005386
    vertex 6.0123865 18.756815480400128 4.005386
  endloop
endfacet
facet normal -0.0 1.0 -0.0
  outer loop
    vertex 15.0106115 18.756815480400128 4.005386
    vertex 6.0123865 18.756815480400128 6.767867000000001
    vertex 15.0106115 18.756815480400128 6.767867000000001
  endloop
endfacet
facet normal 1.0 -0.0 -0.0
  outer loop
    vertex 6.0123865 21.608242480400126 4.005386
    vertex 6.0123865 18.756815480400128 6.767867000000001
    vertex 6.0123865 18.756815480400128 4.005386
  endloop
endfacet
facet normal 1.0 -0.0 -0.0
  outer loop
    vertex 6.0123865 18.756815480400128 6.767867000000001
    vertex 6.0123865 21.608242480400126 4.005386
    vertex 6.0123865 21.608242480400126 6.767867000000001
  endloop
endfacet
facet normal 0.0 -1.0 -0.0
  outer loop
    vertex 14.285014499999999 21.608242480400126 6.767867000000001
    vertex 6.0123865 21.608242480400126 4.005386
    vertex 14.285014499999999 21.608242480400126 4.005386
  endloop
endfacet
facet normal 0.0 -1.0 -0.0
  outer loop
    vertex 6.0123865 21.608242480400126 4.005386
    vertex 14.285014499999999 21.608242480400126 6.767867000000001
    vertex 6.0123865 21.608242480400126 6.767867000000001
  endloop
endfacet
facet normal 0.0 -1.0 -0.0
  outer loop
    vertex 15.0106115 21.608242480400126 6.767867000000001
    vertex 14.285014499999999 21.608242480400126 4.005386
    vertex 15.0106115 21.608242480400126 4.005386
  endloop
endfacet
facet normal 0.0 -1.0 -0.0
  outer loop
    vertex 14.285014499999999 21.608242480400126 4.005386
    vertex 15.0106115 21.608242480400126 6.767867000000001
    vertex 14.285014499999999 21.608242480400126 6.767867000000001
  endloop
endfacet
facet normal 0.0 -1.0 -0.0
  outer loop
    vertex 16.0519735 21.608242480400126 6.767867000000001
    vertex 15.0106115 21.608242480400126 4.005386
    vertex 16.0519735 21.608242480400126 4.005386
  endloop
endfacet
facet normal 0.0 -1.0 -0.0
  outer loop
    vertex 15.0106115 21.608242480400126 4.005386
    vertex 16.0519735 21.608242480400126 6.767867000000001
    vertex 15.0106115 21.608242480400126 6.767867000000001
  endloop
endfacet
facet normal 0.0 -1.0 -0.0
  outer loop
    vertex 23.982841499999996 21.608242480400126 6.767867000000001
    vertex 16.0519735 21.608242480400126 4.005386
    vertex 23.982841499999996 21.608242480400126 4.005386
  endloop
endfacet
facet normal 0.0 -1.0 -0.0
  outer loop
    vertex 16.0519735 21.608242480400126 4.005386
    vertex 23.982841499999996 21.608242480400126 6.767867000000001
    vertex 16.0519735 21.608242480400126 6.767867000000001
  endloop
endfacet
facet normal -1.0 0.0 0.0
  outer loop
    vertex 23.982841499999996 21.608242480400126 6.767867000000001
    vertex 23.982841499999996 18.756815480400128 4.005386
    vertex 23.982841499999996 18.756815480400128 6.767867000000001
  endloop
endfacet
facet normal -1.0 0.0 0.0
  outer loop
    vertex 23.982841499999996 18.756815480400128 4.005386
    vertex 23.982841499999996 21.608242480400126 6.767867000000001
    vertex 23.982841499999996 21.608242480400126 4.005386
  endloop
endfacet
endsolid TrackBlock2
